<?xml version="1.0" encoding="utf-8"?>
<!-- Generator: Adobe Illustrator 26.0.1, SVG Export Plug-In . SVG Version: 6.00 Build 0)  -->
<svg version="1.1" id="Layer_1" xmlns="http://www.w3.org/2000/svg" xmlns:xlink="http://www.w3.org/1999/xlink" x="0px" y="0px"
	 viewBox="0 0 283.46 283.46" style="enable-background:new 0 0 283.46 283.46;" xml:space="preserve">
<style type="text/css">
	.st0{fill:#172B4D;}
	.st1{fill:none;stroke:#172B4D;stroke-width:3;stroke-miterlimit:10;}
	.st2{fill:#FFFFFF;}
</style>
<text transform="matrix(0.9742 0 0 1 -1506.5717 19.1735)" style="fill:#FF4B55; font-family:'AvantGardeITCbyBT-Medium'; font-size:13.0872px;">Shoes</text>
<g>
	<path class="st0" d="M-1475.35-10.68c0.03,0.75,0.02,0.79-0.47,0.73c-0.99-0.12-1.98-0.18-2.97-0.37
		c-0.85-0.16-1.68-0.39-2.51-0.65c-0.92-0.28-1.8-0.68-2.68-1.09c-1.19-0.55-2.29-1.25-3.33-2.03c-1.44-1.08-2.83-2.22-3.96-3.65
		c-0.75-0.95-1.39-1.96-1.94-3.05c-0.59-1.19-1.1-2.41-1.58-3.65c-0.37-0.95-0.73-1.9-1.11-2.85c-0.35-0.87-0.68-1.75-1.08-2.6
		c-0.8-1.71-1.64-3.41-2.94-4.79c-0.99-1.05-2.1-1.96-3.17-2.92c-1.21-1.1-2.4-2.21-3.33-3.59c-0.69-1.03-1.08-2.16-0.83-3.45
		c0.09-0.48,0.33-0.88,0.59-1.27c0.97-1.46,1.96-2.91,2.81-4.46c0.03-0.06,0.07-0.12,0.09-0.18c0.06-0.15,0.12-0.36,0.28-0.34
		c0.14,0.02,0.19,0.23,0.25,0.38c0.49,1.25,1.33,2.12,2.58,2.57c0.56,0.2,1.13,0.27,1.72,0.27c1.09,0,2.18,0,3.27-0.06
		c0.84-0.05,1.67-0.07,2.49,0.23c0.76,0.28,1.32,0.76,1.71,1.46c0.38,0.69,0.52,1.46,0.74,2.21c0.25,0.85,0.46,1.7,0.69,2.56
		c0.11,0.4,0.18,0.81,0.28,1.21c0.22,0.85,0.38,1.72,0.57,2.59c0.22,1,0.46,1.99,0.66,2.99c0.1,0.47,0.18,0.95,0.3,1.41
		c0.37,1.51,0.74,3.02,1.45,4.42c0.51,1,1.16,1.88,2.16,2.31c0.72,0.31,0.66,0.94,0.88,1.45c0.34,0.8,0.66,1.6,1.09,2.35
		c0.65,1.11,1.39,2.17,2.18,3.18c0.69,0.88,1.4,1.74,2.08,2.62c0.94,1.21,1.85,2.45,2.46,3.88
		C-1475.57-12.07-1475.38-11.28-1475.35-10.68z M-1498.76-41.5c-0.09,0.02-0.15,0.07-0.16,0.14c-0.02,0.26-0.22,0.41-0.33,0.62
		c-0.18,0.33-0.3,0.74-0.51,0.98c-0.27,0.3-0.39,0.68-0.65,0.97c-0.11,0.13-0.08,0.25,0.08,0.37c0.77,0.55,1.48,1.18,2.11,1.9
		c1.14,1.3,1.99,2.8,2.73,4.36c0.75,1.58,1.37,3.22,2.01,4.85c0.61,1.53,1.25,3.04,2.03,4.49c0.19,0.35,0.21,0.36,0.45,0.06
		c0.51-0.65,1.01-1.32,1.54-1.96c0.26-0.31,0.29-0.56,0.04-0.88c-0.1-0.12-0.15-0.28-0.23-0.42c-0.4-0.71-0.72-1.45-1.06-2.18
		c-0.24-0.53-0.44-1.08-0.66-1.62c-0.44-1.08-0.9-2.15-1.34-3.23c-0.36-0.89-0.74-1.77-1.18-2.62c-0.58-1.1-1.22-2.16-2-3.14
		c-0.78-0.98-1.68-1.8-2.65-2.56C-1498.61-41.42-1498.69-41.46-1498.76-41.5z"/>
	<path class="st0" d="M-1513.1-24.97c5.7,3.23,11.47,6.33,17.43,9.15c-0.05-0.34-0.19-0.59-0.42-0.76c-0.9-0.65-1.9-1.12-2.84-1.7
		c-0.96-0.59-1.93-1.16-2.89-1.75c-1.68-1.04-3.35-2.09-5.02-3.13c-0.3-0.19-0.63-0.32-0.86-0.61c0.31,0.01,0.58,0.17,0.83,0.3
		c1.66,0.83,3.35,1.58,5.04,2.35c0.82,0.38,1.65,0.75,2.48,1.12c0.69,0.31,1.4,0.59,2.1,0.88c0.09,0.04,0.17,0.15,0.27,0.05
		c0.08-0.08,0.04-0.2,0.01-0.3c-0.19-0.66-0.38-1.32-0.58-1.98c-0.21-0.69-0.44-1.37-0.65-2.06c-0.32-1.05-0.7-2.08-1.19-3.06
		c-0.59-1.17-1.35-2.19-2.33-3.03c-0.65-0.56-1.38-1.02-2.08-1.51c-1.27-0.88-2.54-1.77-3.66-2.85c-0.92-0.89-1.73-1.87-2.2-3.09
		c-0.52-1.36-0.54-2.75-0.01-4.11c0.17-0.44,0.48-0.82,0.75-1.21c0.11-0.15,0.2-0.05,0.21,0.1c0.03,0.28,0.13,0.54,0.18,0.8
		c0.19,1.15,0.77,2.1,1.43,3c0.91,1.25,2.06,2.26,3.21,3.26c0.82,0.72,1.62,1.46,2.33,2.29c0.9,1.06,1.68,2.23,2.37,3.45
		c0.78,1.41,1.42,2.89,2.06,4.37c0.37,0.87,0.8,1.72,1.14,2.6c0.4,1,0.85,1.98,1.33,2.93c0.85,1.68,1.86,3.25,3.22,4.56
		c1.13,1.09,2.34,2.06,3.63,2.94c1.07,0.74,2.2,1.37,3.36,1.94c0.73,0.36,1.5,0.65,2.28,0.92c0.81,0.28,1.62,0.52,2.45,0.71
		c2.51,0.57,5.05,0.61,7.6,0.5c1.12-0.04,2.21-0.34,3.27-0.71c0.76-0.26,1.47-0.61,2.16-1.02c0.23-0.14,0.32-0.07,0.32,0.21
		c0,0.76-0.36,1.33-0.92,1.79c-0.6,0.49-1.31,0.8-2.04,1.03c-0.93,0.29-1.88,0.49-2.85,0.63c-2.17,0.31-4.33,0.32-6.51,0.15
		c-1.47-0.11-2.9-0.44-4.32-0.82c-1.04-0.28-2.06-0.68-3.07-1.11c-0.67-0.29-1.33-0.6-1.98-0.92c-1.02-0.49-2.01-1.06-3-1.61
		c-1.19-0.66-2.38-1.32-3.55-2.01c-1.16-0.68-2.28-1.41-3.43-2.11c-1.44-0.87-2.83-1.81-4.23-2.74c-1.28-0.85-2.53-1.74-3.79-2.62
		c-1.43-1.01-2.85-2.03-4.27-3.04c-0.86-0.62-1.72-1.25-2.57-1.87c-0.09-0.06-0.16-0.15-0.24-0.23
		C-1513.14-24.91-1513.12-24.94-1513.1-24.97z"/>
	<path class="st0" d="M-1478.73-26.98c0.95-0.03,1.85,0.15,2.72,0.53c0.15,0.07,0.27,0.14,0.32,0.32c0.3,1.01,0.81,1.91,1.43,2.75
		c1.04,1.41,2.33,2.56,3.66,3.69c1.09,0.92,2.16,1.86,3.06,2.99c1.18,1.48,1.58,3.15,1.29,5.03c-0.02,0.16-0.11,0.24-0.25,0.29
		c-0.78,0.3-1.59,0.46-2.39,0.71c-0.66,0.2-1.34,0.29-2,0.42c-0.75,0.15-1.51,0.18-2.27,0.26c-0.27,0.03-0.54,0.04-0.81,0.06
		c-0.21,0.01-0.32-0.08-0.31-0.31c0.04-0.64-0.11-1.26-0.21-1.88c-0.14-0.87-0.46-1.68-0.86-2.45c-0.74-1.44-1.73-2.69-2.79-3.9
		c-0.7-0.8-1.41-1.6-2.05-2.45c-0.87-1.16-1.7-2.37-2.22-3.75c-0.13-0.35-0.3-0.69-0.36-1.08c-0.02-0.16,0-0.26,0.16-0.33
		c0.53-0.21,1.06-0.42,1.61-0.59C-1480.25-26.92-1479.49-26.95-1478.73-26.98z"/>
	<path class="st0" d="M-1502.75-52.25c0-1.07,0.31-1.97,0.68-2.85c0.32-0.78,0.73-1.5,1.32-2.1c0.95-0.98,2.11-1.32,3.39-0.99
		c0.9,0.23,1.6,0.85,2.18,1.6c0.62,0.8,0.95,1.76,1.43,2.64c0.36,0.67,0.75,1.33,1.2,1.95c0.26,0.36,0.26,0.42-0.12,0.62
		c-0.51,0.26-1.06,0.43-1.63,0.51c-0.23,0.03-0.29-0.13-0.36-0.29c-0.3-0.72-0.63-1.42-1.04-2.08c-0.3-0.49-0.59-0.99-1.06-1.36
		c-0.74-0.6-1.34-0.4-1.85,0.2c-0.64,0.76-1.13,1.64-1.19,2.68c-0.04,0.57,0.18,1.04,0.67,1.34c0.33,0.2,0.67,0.34,1.07,0.4
		c1.08,0.15,2.15,0.12,3.22-0.04c1.22-0.19,2.43-0.46,3.46-1.23c0.78-0.58,1.37-1.35,1.86-2.19c0.35-0.59,0.7-1.18,1.31-1.53
		c0.27-0.16,0.54-0.31,0.85-0.39c0.9-0.23,1.82-0.21,2.69,0.05c0.94,0.28,1.66,0.85,2,1.86c0.32,0.95,0.4,1.92,0.53,2.9
		c0.16,1.18,0.37,2.36,0.67,3.51c0.08,0.32,0.02,0.34-0.28,0.23c-0.6-0.22-1.22-0.38-1.87-0.36c-0.86,0.03-1.73-0.05-2.59,0.1
		c-1.35,0.23-2.68,0.54-3.95,1.08c-0.18,0.08-0.24,0.02-0.3-0.13c-0.33-0.92-0.85-1.68-1.73-2.15c-0.6-0.32-1.24-0.45-1.91-0.47
		c-1.55-0.04-3.1,0.13-4.65,0.09c-0.83-0.02-1.6-0.23-2.31-0.64C-1502.19-49.95-1502.79-50.97-1502.75-52.25z"/>
	<path class="st0" d="M-1480.6-34.58c0.57,0,0.95-0.02,1.33,0c0.8,0.06,1.49,0.36,1.92,1.09c0.31,0.53,0.29,1.12,0.16,1.71
		c-0.03,0.16-0.14,0.14-0.26,0.09c-0.95-0.39-1.95-0.51-2.96-0.45c-1.22,0.07-2.42,0.26-3.6,0.58c-0.81,0.21-1.58,0.51-2.34,0.82
		c-0.21,0.09-0.35,0.08-0.42-0.2c-0.14-0.58-0.31-1.15-0.47-1.72c-0.06-0.21,0.01-0.31,0.22-0.42c1.51-0.75,3.09-1.16,4.75-1.38
		C-1481.65-34.55-1481.03-34.56-1480.6-34.58z"/>
	<path class="st0" d="M-1478.18-36.16c0,0.08,0,0.16,0,0.24c-0.03,0.61-0.06,0.61-0.61,0.39c-0.58-0.23-1.19-0.3-1.81-0.33
		c-1.18-0.05-2.36,0.06-3.51,0.31c-0.92,0.21-1.85,0.45-2.73,0.8c-0.19,0.07-0.36,0.17-0.55,0.25c-0.23,0.1-0.28,0.04-0.33-0.19
		c-0.12-0.64-0.26-1.28-0.4-1.92c-0.03-0.14,0-0.22,0.12-0.27c0.73-0.29,1.44-0.63,2.2-0.83c1.7-0.45,3.43-0.73,5.18-0.65
		c0.91,0.04,1.79,0.3,2.27,1.26C-1478.2-36.8-1478.19-36.48-1478.18-36.16z"/>
	<path class="st0" d="M-1482.26-42.05c0.76-0.02,1.5,0,2.18,0.42c0.67,0.42,0.98,1.02,0.93,1.81c-0.05,0.79-0.05,0.73-0.77,0.53
		c-0.96-0.27-1.96-0.38-2.96-0.24c-0.38,0.05-0.76,0.07-1.14,0.11c-1.28,0.16-2.51,0.53-3.73,0.96c-0.74,0.26-0.6,0.38-0.8-0.43
		c-0.12-0.48-0.17-0.97-0.3-1.45c-0.06-0.21,0.02-0.31,0.18-0.38c0.39-0.17,0.77-0.36,1.18-0.49c0.91-0.28,1.84-0.49,2.78-0.65
		C-1483.91-41.99-1483.09-42.03-1482.26-42.05z"/>
	<path class="st0" d="M-1480.21-43.7c0,0.04,0,0.17-0.02,0.29c-0.08,0.4-0.17,0.4-0.55,0.26c-0.62-0.23-1.27-0.34-1.93-0.39
		c-1.12-0.08-2.21,0.13-3.3,0.32c-1.02,0.18-2.04,0.42-2.98,0.9c-0.22,0.11-0.37,0.07-0.42-0.19c-0.11-0.62-0.26-1.23-0.48-1.83
		c-0.05-0.14,0.01-0.23,0.15-0.3c0.65-0.34,1.36-0.52,2.05-0.75c0.65-0.22,1.33-0.33,2-0.43c0.94-0.14,1.9-0.17,2.85-0.16
		c0.35,0.01,0.7,0.03,1.03,0.12c0.37,0.1,0.72,0.24,1,0.53C-1480.43-44.92-1480.2-44.39-1480.21-43.7z"/>
	<path class="st0" d="M-1479.01-30.72c0.33,0,0.65,0,0.98,0c1.55,0.02,2.43,1.18,2.3,2.7c-0.02,0.25-0.16,0.25-0.33,0.18
		c-0.36-0.13-0.71-0.27-1.07-0.4c-0.69-0.24-1.4-0.16-2.1-0.2c-0.79-0.04-1.56,0.12-2.32,0.33c-0.69,0.18-1.39,0.41-1.99,0.8
		c-0.49,0.31-0.85,0.09-1.2-0.15c-0.45-0.31-0.8-0.73-1.1-1.2c-0.16-0.24-0.1-0.38,0.12-0.49c0.64-0.34,1.31-0.58,1.99-0.82
		c1.06-0.38,2.18-0.53,3.28-0.7c0.47-0.07,0.96-0.01,1.44-0.01C-1479.01-30.69-1479.01-30.71-1479.01-30.72z"/>
</g>
<text transform="matrix(0.9742 0 0 1 -1426.0383 19.9619)" style="fill:#FF4B55; font-family:'AvantGardeITCbyBT-Medium'; font-size:13.4913px;">Accessories</text>
<g>
	<path class="st0" d="M-1371.7-37.34c-2.01,2.02-3.8,4.06-5.88,5.81c-0.39,0.33-0.38,0.73-0.38,1.16c0,1.43,0,2.86,0,4.29
		c0,1.34-0.17,2.6,1.18,3.66c1.07,0.84,0.72,2.62-0.35,3.54c-1.06,0.91-2.64,0.86-3.63-0.13c-0.99-0.99-1.16-2.74-0.08-3.58
		c1.09-0.84,1.14-1.81,1.11-2.97c-0.04-1.27-0.01-2.54-0.01-3.76c-0.54-0.19-0.75,0.14-1,0.32c-2.69,1.92-5.56,3.5-8.64,4.68
		c-0.84,0.32-1.26,0.71-1.13,1.64c0.06,0.42,0.05,0.86,0,1.28c-0.12,0.98,0.17,1.47,1.24,1.77c3.41,0.98,5.54,4.46,4.97,7.85
		c-0.59,3.51-3.59,6.08-7.08,6.08c-3.49,0-6.49-2.58-7.07-6.08c-0.57-3.4,1.56-6.87,4.97-7.85c1.06-0.3,1.35-0.79,1.24-1.77
		c-0.06-0.56-0.03-1.14-0.01-1.71c0.02-0.47-0.1-0.79-0.6-0.98c-1.78-0.68-3.51-1.47-5.18-2.4c-1.62-0.9-3.17-1.92-4.97-3.2
		c0,2.18-0.01,4.08,0.01,5.99c0,0.38,0.44,0.46,0.68,0.68c1.32,1.16,1.45,2.86,0.3,4.02c-1.07,1.07-2.8,1.04-3.84-0.06
		c-1.08-1.15-0.99-2.87,0.33-3.89c0.57-0.44,0.8-0.88,0.71-1.54c-0.01-0.05,0-0.1,0-0.14c0-2,0.32-4.07-0.09-5.98
		c-0.42-1.92-2.62-2.73-3.77-4.28c-0.64-0.87-1.4-1.66-2.38-2.8c0,1.91-0.01,3.48,0.01,5.06c0.01,0.46,0.5,0.52,0.77,0.77
		c1.21,1.1,1.32,2.81,0.23,3.93c-1.08,1.1-2.76,1.1-3.83-0.01c-1.08-1.12-1.01-2.92,0.29-3.89c0.64-0.48,0.81-0.96,0.75-1.66
		c0-0.05-0.01-0.1,0-0.14c0.65-4.53-0.71-8.55-2.95-12.43c-1.17-2.03-0.98-2.14,1.3-2.79c4.67-1.33,9.33-2.66,14-4
		c2.33-0.67,2.82-1.32,2.83-3.75c0-1.14,0.03-2.29-0.01-3.43c-0.02-0.68,0.11-1.05,0.92-1.04c3.57,0.04,7.15,0.04,10.72,0
		c0.82-0.01,0.93,0.38,0.92,1.04c-0.03,1.33-0.02,2.67,0,4c0.02,1.7,0.62,2.5,2.28,2.99c5.16,1.5,10.32,3.01,15.51,4.42
		c1.15,0.31,1.21,0.75,0.76,1.66c-0.57,1.15-0.94,2.43-1.66,3.47c-1.54,2.23-1.97,4.65-1.74,7.28c0.08,0.9,0.04,1.81,0,2.71
		c-0.03,0.7,0.12,1.18,0.76,1.66c1.3,0.98,1.36,2.77,0.28,3.89c-1.07,1.11-2.76,1.11-3.83,0c-1.08-1.12-1.03-2.9,0.26-3.9
		c0.61-0.47,0.81-0.94,0.79-1.66C-1371.73-34.8-1371.7-36.07-1371.7-37.34z M-1391.52-46.82c2.62,0.05,5.56-2.29,6.16-4.9
		c0.05-0.23,0.17-0.48-0.04-0.66c-1.79-1.56-1.55-3.67-1.48-5.7c0.04-1.04-0.37-1.29-1.33-1.26c-1.99,0.06-4,0.11-5.99-0.01
		c-1.4-0.08-1.81,0.39-1.71,1.75c0.14,1.85,0.18,3.74-1.42,5.14c-0.18,0.16-0.19,0.37-0.14,0.64
		C-1397.07-49.42-1394.04-46.86-1391.52-46.82z M-1383.79-29.4c-0.09-0.18-0.17-0.35-0.26-0.52c-0.64-1.11-1.32-2.21-1.9-3.35
		c-0.38-0.74-0.7-0.66-1.27-0.21c-1.31,1.03-2.62,2.62-4.11,2.66c-1.57,0.04-2.89-1.64-4.25-2.67c-0.6-0.45-0.9-0.5-1.26,0.23
		c-0.56,1.1-1.18,2.17-1.84,3.22c-0.39,0.61-0.32,0.93,0.33,1.31c2.02,1.17,4.12,2.18,6.29,3.03c0.41,0.16,0.78,0.23,1.23,0.05
		c2.26-0.89,4.46-1.91,6.53-3.18C-1384.09-28.96-1383.76-29.03-1383.79-29.4z M-1382.11-30.3c0.21-0.13,0.39-0.21,0.54-0.33
		c2.66-1.95,5.07-4.17,7.18-6.71c0.41-0.49,0.19-0.72-0.17-1.02c-1.13-0.95-2.26-1.89-3.36-2.88c-0.49-0.44-0.79-0.5-1.25,0.06
		c-1.6,1.96-3.37,3.76-5.28,5.41c-0.45,0.39-0.51,0.71-0.2,1.21c0.74,1.22,1.42,2.47,2.13,3.71
		C-1382.41-30.66-1382.25-30.49-1382.11-30.3z M-1397.96-34.85c0.13-0.54-0.14-0.7-0.34-0.88c-1.93-1.71-3.74-3.53-5.37-5.52
		c-0.43-0.53-0.73-0.39-1.15-0.02c-1.1,0.98-2.23,1.94-3.36,2.88c-0.44,0.36-0.57,0.62-0.15,1.13c2.09,2.49,4.45,4.69,7.08,6.6
		c0.2,0.14,0.5,0.52,0.7,0.19C-1399.62-31.96-1398.75-33.49-1397.96-34.85z M-1396.28-14.82c-0.94,2.61-0.13,5.1,2,6.46
		c2.06,1.32,4.8,1.06,6.58-0.62c1.66-1.57,2.13-4.02,1.11-5.73C-1389.21-11.11-1393.41-10.95-1396.28-14.82z M-1395-35.31
		c0.07-1.36,0.14-2.4,0.69-3.33c0.24-0.4,0.04-0.59-0.34-0.74c-4.25-1.69-6.75-5.12-8.85-8.94c-0.98-1.77-1.04-1.8-2.89-1.08
		c-0.56,0.22-0.63,0.42-0.33,0.92C-1403.64-43.48-1399.82-39.15-1395-35.31z M-1387.73-35.34c4.75-3.81,8.56-8.09,11.6-13.05
		c0.14-0.23,0.4-0.44,0.19-0.75c-0.48-0.73-2.55-0.64-2.97,0.13c-2.19,4.09-4.71,7.86-9.28,9.66c-0.41,0.16-0.5,0.41-0.27,0.77
		C-1387.87-37.68-1387.89-36.61-1387.73-35.34z M-1373.07-39.45c0.41,0,0.51-0.3,0.66-0.52c1.41-2.02,2.6-4.17,3.64-6.41
		c0.3-0.65,0.03-0.82-0.5-0.97c-1.19-0.32-2.4-0.58-3.55-1.01c-0.88-0.33-1.26-0.01-1.69,0.69c-0.73,1.21-1.51,2.41-2.37,3.54
		c-0.51,0.67-0.56,1.06,0.15,1.6c1.06,0.8,2.02,1.71,3.03,2.58C-1373.48-39.77-1373.25-39.6-1373.07-39.45z M-1409.43-48.51
		c-1.39,0.41-2.94,0.84-4.47,1.32c-0.65,0.2-0.17,0.64-0.06,0.91c0.75,1.74,1.67,3.4,2.69,5c1.32,2.06,1.32,2.06,3.12,0.5
		c0.75-0.65,1.49-1.32,2.27-1.94c0.48-0.38,0.48-0.68,0.13-1.17c-0.96-1.35-1.86-2.74-2.78-4.12
		C-1408.7-48.27-1408.84-48.59-1409.43-48.51z M-1391.16-18.24c-1.16,0.03-1.96,0.3-2.75,0.64c-1.07,0.47-1.09,1.15-0.57,2.05
		c1.13,1.93,3.75,2.39,5.41,0.9c0.61-0.55,1.23-1.23,1.08-2.07c-0.15-0.83-1.08-0.98-1.77-1.23
		C-1390.29-18.13-1390.87-18.18-1391.16-18.24z M-1389.63-36.02c-0.01-1.49-0.77-2.67-1.69-2.72c-0.98-0.06-1.81,1.15-1.82,2.64
		c0,0.24-0.01,0.48,0.04,0.71c0.22,0.96,0.57,1.95,1.71,1.95c1.14,0,1.49-1,1.71-1.96C-1389.63-35.64-1389.64-35.88-1389.63-36.02z
		 M-1391.37-40.54c2.34-0.01,2.48-0.2,1.41-2.24c-0.4-0.77-0.52-2.11-1.38-2.12c-0.98-0.01-1.07,1.37-1.49,2.16
		C-1393.9-40.75-1393.73-40.54-1391.37-40.54z M-1381.75-47.68c-1.1,0-1.98,0-2.86,0c-0.3,0-0.62,0.05-0.64,0.4
		c-0.09,1.36-0.5,2.7-0.33,4.33C-1384-44.42-1382.82-45.84-1381.75-47.68z M-1397.06-42.97c-0.16-1.56-0.28-2.86-0.42-4.15
		c-0.03-0.31-0.18-0.56-0.53-0.54c-0.95,0.04-1.92-0.19-2.95,0.17C-1399.86-45.83-1398.81-44.29-1397.06-42.97z M-1400.4-49.45
		c0.24,0,0.47-0.02,0.71,0c1.1,0.13,1.3-0.21,0.8-1.21c-0.7-1.4-1.53-0.22-2.25-0.15c-0.41,0.04-1.3-0.14-1.19,0.73
		c0.1,0.76,0.82,0.62,1.37,0.62C-1400.78-49.44-1400.59-49.45-1400.4-49.45z M-1382.52-49.45c0.38,0,0.76-0.02,1.13,0.01
		c0.57,0.04,0.95-0.23,1-0.76c0.04-0.52-0.53-0.41-0.83-0.53c-0.47-0.2-0.99-0.3-1.49-0.41c-0.33-0.07-0.73-0.44-0.96,0.12
		c-0.19,0.46-0.69,0.89-0.45,1.41c0.17,0.36,0.68,0.13,1.04,0.17C-1382.9-49.43-1382.71-49.45-1382.52-49.45z M-1395.17-42.46
		c1.83-2.86,1.8-3.02-0.38-3.55C-1395.43-44.91-1395.31-43.84-1395.17-42.46z M-1387.25-46.08c-2.28,0.79-2.29,0.84-0.44,3.43
		C-1387.33-43.8-1387.39-44.93-1387.25-46.08z M-1370.87-30.71c-0.39,0.11-0.77,0.27-0.8,0.8c-0.03,0.59,0.29,0.91,0.84,0.93
		c0.47,0.01,0.82-0.27,0.87-0.77C-1369.92-30.33-1370.3-30.59-1370.87-30.71z M-1411.9-28.96c0.48-0.11,0.81-0.35,0.8-0.87
		c-0.01-0.58-0.38-0.88-0.92-0.84c-0.47,0.03-0.81,0.34-0.79,0.84C-1412.8-29.26-1412.42-29.01-1411.9-28.96z M-1403.06-21
		c-0.02-0.37-0.26-0.69-0.77-0.72c-0.56-0.03-0.94,0.26-0.93,0.82c0,0.55,0.37,0.89,0.92,0.87
		C-1403.37-20.05-1403.08-20.37-1403.06-21z M-1378.88-20.01c0.52-0.08,0.88-0.38,0.87-0.93c-0.02-0.48-0.33-0.78-0.84-0.78
		c-0.58,0-0.88,0.31-0.86,0.89C-1379.68-20.33-1379.37-20.09-1378.88-20.01z"/>
	<path class="st0" d="M-1390.52-28.07c0.09,0.62-0.07,0.98-0.81,0.96c-0.63-0.02-0.96-0.12-0.94-0.85c0.02-0.61,0.1-0.98,0.84-0.96
		C-1390.83-28.9-1390.39-28.82-1390.52-28.07z"/>
	<path class="st0" d="M-1378.87-36.1c0.12,0.76-0.23,0.93-0.87,0.96c-0.8,0.03-0.92-0.35-0.93-1.02c-0.01-0.75,0.4-0.82,0.98-0.82
		C-1379.02-36.98-1378.72-36.71-1378.87-36.1z"/>
	<path class="st0" d="M-1402.12-36.09c0.07,0.63-0.14,0.94-0.84,0.94c-0.73,0.01-0.98-0.24-0.98-0.97c0-0.71,0.32-0.86,0.94-0.87
		C-1402.35-36.99-1402.03-36.76-1402.12-36.09z"/>
	<path class="st0" d="M-1371.72-44.99c0.12,0.8-0.34,0.87-0.92,0.89c-0.69,0.03-0.87-0.28-0.88-0.92c-0.02-0.79,0.36-0.92,1.03-0.91
		C-1371.75-45.93-1371.63-45.54-1371.72-44.99z"/>
	<path class="st0" d="M-1409.28-45.04c0.11,0.75-0.25,0.94-0.89,0.94c-0.64,0-0.92-0.19-0.92-0.88c-0.01-0.75,0.28-0.96,0.99-0.96
		C-1409.39-45.93-1409.18-45.62-1409.28-45.04z"/>
</g>
<text transform="matrix(0.9742 0 0 1 -1603.7299 18.508)" style="fill:#FF4B55; font-family:'AvantGardeITCbyBT-Medium'; font-size:12.992px;">Bags</text>
<g>
	<path class="st0" d="M-1589.96-5.72c-7.06,0-14.11,0.01-21.17,0c-6.04-0.01-9.35-4.84-7.24-10.5c2.48-6.64,4.95-13.28,7.42-19.92
		c0.16-0.44,0.3-0.89,0.38-1.35c0.45-2.58,2.3-4.3,4.92-4.34c0.99-0.02,1.2-0.36,1.12-1.23c-0.07-0.86,0.18-1.65,0.91-2.18
		c0.52-0.38,0.41-0.88,0.42-1.38c0.02-2.31-0.11-4.62,0.56-6.88c1.78-6,7.68-10.09,13.78-9.51c6.59,0.62,11.68,5.63,12.21,12.09
		c0.12,1.4,0.08,2.82,0.08,4.23c0,0.57,0.05,1.03,0.62,1.39c0.89,0.56,1.1,1.49,1.04,2.47c-0.04,0.64,0.08,0.95,0.86,1
		c2.77,0.18,4.22,1.79,4.93,4.51c0.67,2.56,1.75,5.02,2.67,7.51c1.71,4.63,3.45,9.24,5.17,13.87c1.96,5.28-1.42,10.21-7.05,10.23
		C-1575.54-5.69-1582.75-5.72-1589.96-5.72z M-1610.33-32.4c-0.21,0.46-0.35,0.73-0.45,1.01c-1.99,5.32-3.98,10.64-5.95,15.97
		c-1.59,4.31,0.9,7.87,5.52,7.87c14.23,0,28.47,0,42.7,0c0.55,0,1.11,0,1.64-0.11c3.38-0.71,5.19-4.09,3.95-7.46
		c-2.04-5.55-4.13-11.08-6.21-16.62c-0.09-0.24-0.1-0.55-0.45-0.65c-0.04,0.15-0.08,0.3-0.12,0.45c-2.25,8.19-7.32,13.6-15.62,15.79
		c-0.76,0.2-0.73,0.63-0.77,1.18c-0.14,2.01-1.01,3.24-2.56,3.68c-2.6,0.74-4.93-0.95-5.03-3.7c-0.02-0.59-0.05-0.96-0.79-1.15
		C-1602.92-18.32-1608.06-23.79-1610.33-32.4z M-1589.79-40.03c-5.18,0-10.35-0.01-15.53,0c-2.17,0.01-3.42,1.26-3.46,3.43
		c-0.16,8.59,5.65,16.28,13.92,18.5c0.8,0.21,1.12,0.23,1.27-0.76c0.25-1.78,1.9-3.05,3.66-3.05c1.81-0.01,3.47,1.18,3.73,2.95
		c0.17,1.16,0.64,1.03,1.45,0.8c7.84-2.23,13.55-9.75,13.75-18.15c0.06-2.44-1.18-3.71-3.63-3.71
		C-1579.68-40.03-1584.73-40.03-1589.79-40.03z M-1589.81-41.87c1.68,0,3.37-0.02,5.05,0.01c0.6,0.01,0.86-0.18,0.81-0.8
		c-0.08-1.12,0.18-2.11,1.17-2.78c0.32-0.22,0.26-0.55,0.26-0.85c0-1.33,0.04-2.67-0.03-3.99c-0.21-3.81-3.49-6.84-7.34-6.84
		c-3.85,0.01-7.11,3.03-7.32,6.86c-0.07,1.29-0.02,2.58-0.03,3.88c0,0.31-0.03,0.63,0.31,0.82c1.15,0.63,1.5,1.65,1.39,2.88
		c-0.07,0.72,0.3,0.84,0.91,0.83C-1593.02-41.89-1591.42-41.87-1589.81-41.87z M-1578.38-48.56c-0.01,0-0.01,0-0.02,0
		c0-0.51,0.01-1.02,0-1.53c-0.16-4.85-3.35-9.1-7.94-10.59c-4.6-1.49-9.61,0.09-12.64,3.93c-2.45,3.1-2.56,6.72-2.35,10.4
		c0.05,0.9,0.94,0.38,1.43,0.49c0.44,0.09,0.86,0.03,0.84-0.63c-0.03-1.14-0.02-2.27,0-3.41c0.09-5.05,4.18-9.04,9.24-9.01
		c5.04,0.02,9.09,4.06,9.14,9.12c0.01,1.02,0.03,2.04-0.01,3.06c-0.02,0.63,0.13,0.9,0.83,0.91c1.48,0.02,1.48,0.06,1.49-1.43
		C-1578.38-47.7-1578.38-48.13-1578.38-48.56z M-1587.91-16.57C-1587.91-16.57-1587.9-16.57-1587.91-16.57
		c0.01-0.59,0.06-1.18,0-1.76c-0.12-1.07-0.96-1.77-2-1.76c-0.98,0.01-1.83,0.7-1.9,1.72c-0.09,1.21-0.08,2.43-0.01,3.64
		c0.07,1.03,0.88,1.73,1.87,1.76c1.03,0.04,1.9-0.67,2.03-1.73C-1587.85-15.31-1587.91-15.94-1587.91-16.57z M-1600.11-41.88
		C-1600.11-41.87-1600.11-41.87-1600.11-41.88c0.59,0,1.18-0.02,1.76,0.01c0.63,0.03,1.04-0.04,0.99-0.86
		c-0.04-0.74-0.07-1.33-1.04-1.3c-1.06,0.03-2.12,0.05-3.17-0.01c-0.98-0.05-1.15,0.47-1.19,1.3c-0.04,0.95,0.52,0.87,1.13,0.85
		C-1601.12-41.88-1600.62-41.88-1600.11-41.88z M-1579.46-41.87c0.55,0,1.1,0,1.65,0c0.6,0,1.16,0.09,1.12-0.87
		c-0.04-0.86-0.25-1.34-1.21-1.29c-1.02,0.05-2.04,0.04-3.06,0c-0.88-0.03-1.13,0.36-1.17,1.2c-0.05,0.95,0.44,1.01,1.14,0.96
		C-1580.48-41.9-1579.97-41.87-1579.46-41.87z"/>
</g>
<text transform="matrix(0.9742 0 0 1 -1314.4904 19.1222)" style="fill:#FF4B55; font-family:'AvantGardeITCbyBT-Medium'; font-size:12.9169px;">Perfume</text>
<g>
	<path class="st0" d="M-1291.07-5.72c-3.25,0-6.5-0.02-9.74,0.01c-0.78,0.01-1.42-0.2-2.05-0.65c-12.14-8.59-11.18-27.16,1.82-34.4
		c0.76-0.42,1.12-0.86,1.21-1.75c0.21-2.23,1.78-3.72,4.08-4.14c0.34-0.06,0.92,0.16,0.92-0.51c-0.01-0.76-0.62-0.5-1-0.52
		c-1.89-0.07-1.89-0.06-1.89-1.91c0-0.29-0.01-0.58,0-0.86c0.02-0.78-0.21-1.71,0.15-2.28c0.37-0.6,1.36-0.17,2.08-0.24
		c0.34-0.03,0.73-0.01,0.66-0.49c-0.14-0.94,0.42-0.95,1.1-0.94c1.85,0.03,3.7,0.03,5.55,0c0.69-0.01,1.03,0.11,1.03,0.93
		c0.01,2.12,0.05,2.12,2.22,1.82c4.29-0.61,7.92,1.51,9.48,5.52c0.43,1.11,0.88,2.21,1.35,3.3c0.26,0.61,0.66,1.14,1.19,1.55
		c0.57,0.44,0.95,0.53,1.45-0.24c1.08-1.66,3-2.21,4.76-1.54c1.75,0.67,2.72,2.35,2.52,4.34c-0.18,1.77-1.59,3.15-3.51,3.43
		c-2.02,0.29-3.98-1.13-4.4-3.26c-0.09-0.48-0.17-0.83-0.7-1c-1.21-0.39-1.99-1.3-2.53-2.39c-0.54-1.1-1.08-2.23-1.42-3.4
		c-1.01-3.41-3.52-4.65-6.78-4.84c-0.57-0.03-1.15,0.02-1.72,0.11c-1.96,0.29-1.91,0.31-1.95,2.26c-0.02,0.83,0.24,1.11,1.05,1.23
		c2.25,0.34,3.74,1.86,3.97,4.06c0.09,0.87,0.43,1.33,1.2,1.76c13.02,7.34,13.98,25.84,1.83,34.4c-0.63,0.45-1.26,0.67-2.05,0.66
		C-1284.49-5.74-1287.78-5.72-1291.07-5.72z M-1291.91-23.61l0.03,0.03c0.26-3.49,0.07-6.98,0.11-10.47
		c0.03-3.07,0.01-3.1-3.03-3.08c-1.77,0.01-3.25-0.58-4.23-2.06c-0.43-0.65-0.73-0.62-1.34-0.27c-11.84,6.67-12.86,23.58-1.91,31.67
		c0.56,0.41,1.12,0.59,1.82,0.59c6.29-0.02,12.59-0.02,18.88,0c0.74,0,1.34-0.19,1.92-0.64c4.12-3.19,6.55-7.35,7.4-12.5
		c1.21-7.38-2.96-15.82-9.56-19.22c-0.63-0.32-0.82-0.1-1.14,0.36c-0.98,1.43-2.37,2.1-4.1,2.07c-0.53-0.01-1.07,0-1.6,0
		c-1.62,0-1.61,0-1.61,1.56c0,3.74,0.01,7.48,0,11.23c0,1.45,0,1.45-1.28,0.87C-1291.67-23.54-1291.79-23.57-1291.91-23.61z
		 M-1291.01-38.65c1.4,0,2.8,0.03,4.19-0.01c1.79-0.05,3.11-1.37,3.2-3.11c0.09-1.73-1.12-3.29-2.91-3.36c-3-0.12-6-0.12-9,0.01
		c-1.77,0.08-3.04,1.72-2.93,3.37c0.12,1.71,1.5,3.04,3.25,3.09C-1293.8-38.62-1292.4-38.65-1291.01-38.65z M-1294.82-50.32
		c-0.12-0.46,0.33-1.2-0.71-1.19c-0.91,0.01-0.68,0.64-0.68,1.11c0.01,0.5-0.28,1.2,0.72,1.2
		C-1294.54-49.19-1294.93-49.87-1294.82-50.32z"/>
	<path class="st0" d="M-1317.8-51.27c0.1-1.91,0.83-3.41,2.37-4.45c0.46-0.31,0.74-0.65,0.88-1.23c0.4-1.59,1.95-2.76,3.41-2.74
		c0.51,0.01,0.93,0.13,0.97,0.7c0.04,0.51-0.36,0.71-0.8,0.77c-1.43,0.2-2.22,0.97-2.23,2.45c-0.01,0.54-0.37,0.76-0.8,0.97
		c-1.46,0.71-2.28,1.88-2.27,3.51c0.01,1.63,0.84,2.81,2.31,3.48c0.51,0.23,0.75,0.55,0.77,1.12c0.05,1.3,0.81,2.03,2.04,2.27
		c0.52,0.1,1.06,0.21,0.96,0.85c-0.11,0.67-0.67,0.72-1.26,0.62c-1.56-0.27-2.64-1.16-3.08-2.66c-0.18-0.61-0.44-0.98-0.95-1.32
		C-1317.02-47.98-1317.7-49.51-1317.8-51.27z"/>
	<path class="st0" d="M-1307.47-57.4c-0.13,0.45-0.38,0.75-0.86,0.68c-0.41-0.06-0.63-0.35-0.6-0.77c0.03-0.42,0.28-0.66,0.7-0.66
		C-1307.73-58.15-1307.54-57.83-1307.47-57.4z"/>
	<path class="st0" d="M-1299.48-52.74c-0.05,0.39-0.31,0.6-0.74,0.59c-0.43-0.02-0.69-0.27-0.69-0.69c0.01-0.49,0.33-0.74,0.8-0.69
		C-1299.68-53.5-1299.46-53.23-1299.48-52.74z"/>
	<path class="st0" d="M-1303.27-51.38c-0.05,0.48-0.28,0.77-0.69,0.79c-0.47,0.02-0.77-0.26-0.75-0.76
		c0.02-0.45,0.28-0.66,0.72-0.66C-1303.54-52.01-1303.36-51.71-1303.27-51.38z"/>
	<path class="st0" d="M-1304.83-55.93c-0.05,0.39-0.2,0.71-0.66,0.75c-0.45,0.04-0.71-0.22-0.75-0.63c-0.05-0.48,0.2-0.81,0.69-0.82
		C-1305.11-56.65-1304.9-56.35-1304.83-55.93z"/>
	<path class="st0" d="M-1302.17-54.32c-0.05,0.43-0.28,0.67-0.73,0.65c-0.45-0.02-0.68-0.29-0.67-0.71
		c0.01-0.49,0.32-0.77,0.79-0.72C-1302.36-55.07-1302.14-54.76-1302.17-54.32z"/>
	<path class="st0" d="M-1309.4-51.25c-0.07,0.41-0.34,0.68-0.74,0.66c-0.44-0.02-0.76-0.29-0.73-0.78c0.03-0.51,0.39-0.68,0.84-0.63
		C-1309.6-51.96-1309.42-51.67-1309.4-51.25z"/>
	<path class="st0" d="M-1306.38-51.31c0.02,0.46-0.26,0.71-0.66,0.73c-0.48,0.02-0.77-0.29-0.75-0.77c0.02-0.41,0.28-0.67,0.73-0.66
		C-1306.61-52-1306.4-51.74-1306.38-51.31z"/>
	<path class="st0" d="M-1300.19-50.5c0.45,0.03,0.7,0.26,0.71,0.68c0.01,0.48-0.24,0.77-0.72,0.78c-0.43,0.01-0.67-0.31-0.7-0.69
		C-1300.93-50.19-1300.64-50.46-1300.19-50.5z"/>
	<path class="st0" d="M-1304.82-46.69c-0.06,0.39-0.26,0.66-0.71,0.67c-0.45,0.01-0.69-0.24-0.71-0.66
		c-0.02-0.49,0.24-0.78,0.74-0.76C-1305.07-47.42-1304.85-47.14-1304.82-46.69z"/>
	<path class="st0" d="M-1308.26-44.49c-0.42-0.05-0.67-0.28-0.66-0.72c0.02-0.43,0.27-0.67,0.7-0.67c0.49,0,0.76,0.31,0.72,0.77
		C-1307.53-44.69-1307.83-44.48-1308.26-44.49z"/>
	<path class="st0" d="M-1302.17-48.24c-0.04,0.41-0.22,0.7-0.67,0.71c-0.45,0.01-0.69-0.26-0.7-0.68c-0.01-0.47,0.22-0.8,0.73-0.78
		C-1302.38-48.97-1302.19-48.67-1302.17-48.24z"/>
	<path class="st0" d="M-1291.91-23.61c0.03,3.25,0.05,6.49,0.08,9.74c0.01,0.55-0.19,1.15,0.79,1.15c0.94,0.01,0.83-0.54,0.83-1.12
		c0-2.67,0.01-5.35-0.01-8.02c0-0.56-0.01-0.98,0.78-0.71c4.71,1.59,9.22,1,13.57-1.28c0.1-0.05,0.23-0.05,0.35-0.07
		c0.8,4.94-2.6,11.83-6.96,14.19c-0.4,0.21-0.78,0.21-1.19,0.21c-4.98,0-9.95,0-14.93,0.01c-0.46,0-0.87-0.05-1.27-0.33
		c-4.26-3.03-6.58-7.11-6.87-12.35c-0.05-0.89,0.27-1.35,1.02-1.72c4.68-2.32,9.27-2,13.83,0.34
		C-1291.88-23.57-1291.91-23.61-1291.91-23.61z"/>
	<path class="st0" d="M-1283.04-36.26c1.84,0.11,6.33,4.64,6.53,6.22c0.07,0.59-0.41,0.51-0.68,0.69c-0.44,0.28-0.65-0.01-0.83-0.38
		c-0.77-1.52-1.78-2.84-3.17-3.85c-0.59-0.43-1.23-0.8-1.86-1.17c-0.32-0.19-0.55-0.37-0.29-0.76
		C-1283.17-35.78-1283.22-36.26-1283.04-36.26z"/>
	<path class="st0" d="M-1275.59-27.61c-0.06,0.45-0.31,0.76-0.78,0.75c-0.4-0.01-0.68-0.27-0.69-0.7c-0.01-0.48,0.24-0.75,0.74-0.74
		C-1275.88-28.28-1275.67-28.03-1275.59-27.61z"/>
</g>
<text transform="matrix(0.9355 0 0 1 -1307.6321 -98.8825)" style="fill:#FF4B55; font-family:'AvantGardeITCbyBT-Medium'; font-size:12.7639px;">House</text>
<g>
	<path class="st0" d="M-1265.58-128.79c-0.12,0.12-0.18,0.28-0.32,0.39c-0.1,0.08-0.21,0.13-0.34,0.13c-16.43,0-32.86,0-49.29,0
		c-0.24,0-0.37-0.14-0.49-0.29c-0.27-0.33-0.38-0.71-0.37-1.14c0.01-1.02,0-2.03,0-3.05c0-0.2,0-0.2,0.19-0.2c0.01,0,0.02,0,0.03,0
		c16.86,0,33.73,0,50.59,0C-1265.58-131.56-1265.58-130.18-1265.58-128.79z"/>
	<path class="st0" d="M-1265.58-159.11c-0.14,0.39-0.42,0.65-0.76,0.84c-0.32,0.18-0.93,0.23-1.35-0.06
		c-0.57-0.39-1.06-0.86-1.6-1.29c-0.25-0.2-0.5-0.4-0.74-0.61c-0.57-0.49-1.16-0.97-1.73-1.45c-0.25-0.21-0.51-0.42-0.76-0.63
		c-0.56-0.49-1.14-0.95-1.71-1.43c-0.26-0.22-0.52-0.42-0.77-0.64c-0.56-0.48-1.14-0.95-1.7-1.42c-0.54-0.45-1.08-0.9-1.62-1.35
		c-0.56-0.47-1.13-0.94-1.69-1.41c-0.54-0.45-1.09-0.91-1.63-1.36c-0.56-0.47-1.12-0.93-1.67-1.4c-0.26-0.22-0.52-0.42-0.77-0.64
		c-0.56-0.48-1.14-0.95-1.7-1.42c-0.55-0.46-1.09-0.91-1.64-1.37c-0.56-0.47-1.12-0.93-1.67-1.4c-0.57-0.48-1.13-0.95-1.7-1.42
		c-0.04-0.03-0.06-0.04-0.1,0c-0.51,0.42-1.02,0.83-1.52,1.25c-0.55,0.47-1.11,0.93-1.66,1.39c-0.56,0.47-1.13,0.94-1.69,1.41
		c-0.53,0.44-1.06,0.89-1.6,1.33c-0.56,0.47-1.13,0.94-1.69,1.41c-0.54,0.45-1.09,0.91-1.63,1.36c-0.56,0.47-1.12,0.93-1.67,1.4
		c-0.55,0.46-1.09,0.91-1.64,1.37c-0.56,0.47-1.13,0.94-1.69,1.41c-0.54,0.45-1.07,0.89-1.61,1.34c-0.56,0.47-1.12,0.94-1.68,1.4
		c-0.54,0.45-1.09,0.91-1.63,1.36c-0.56,0.47-1.12,0.94-1.68,1.4c-0.48,0.4-0.95,0.8-1.44,1.2c-0.27,0.23-0.57,0.39-0.94,0.41
		c-0.62,0.04-1.27-0.43-1.48-1.03c-0.22-0.63-0.05-1.32,0.46-1.77c0.28-0.24,0.57-0.47,0.85-0.71c0.57-0.48,1.14-0.95,1.71-1.43
		c0.25-0.21,0.51-0.42,0.76-0.63c0.56-0.49,1.14-0.95,1.71-1.43c0.54-0.45,1.09-0.91,1.63-1.36c0.56-0.47,1.12-0.94,1.68-1.4
		c0.51-0.42,1.01-0.85,1.52-1.27c0.6-0.5,1.2-1,1.8-1.5c0.54-0.45,1.07-0.89,1.61-1.34c0.56-0.47,1.12-0.93,1.68-1.4
		c0.54-0.45,1.09-0.91,1.63-1.36c0.56-0.47,1.12-0.94,1.68-1.4c0.51-0.43,1.02-0.85,1.53-1.28c0.6-0.5,1.2-0.99,1.79-1.49
		c0.54-0.45,1.09-0.9,1.63-1.36c0.22-0.18,0.44-0.36,0.65-0.55c0.41-0.34,0.86-0.46,1.38-0.32c0.13,0.04,0.24,0.11,0.34,0.18
		c0.28,0.19,0.54,0.39,0.79,0.62c0.1,0.09,0.21,0.17,0.31,0.26c0.42,0.34,0.84,0.68,1.25,1.03c0.25,0.22,0.52,0.42,0.77,0.64
		c0.56,0.48,1.14,0.95,1.7,1.42c0.55,0.46,1.09,0.91,1.64,1.37c0.56,0.47,1.12,0.93,1.67,1.39c0.54,0.45,1.08,0.9,1.62,1.35
		c0.57,0.48,1.14,0.95,1.72,1.43c0.52,0.43,1.04,0.87,1.55,1.3c0.58,0.48,1.16,0.96,1.74,1.45c0.53,0.44,1.06,0.89,1.6,1.33
		c0.57,0.48,1.15,0.95,1.72,1.43c0.25,0.21,0.51,0.42,0.76,0.63c0.57,0.49,1.15,0.96,1.72,1.44c0.26,0.22,0.54,0.43,0.8,0.66
		c0.56,0.48,1.13,0.94,1.69,1.42c0.25,0.21,0.51,0.41,0.75,0.62c0.29,0.25,0.59,0.49,0.74,0.86
		C-1265.58-159.91-1265.58-159.51-1265.58-159.11z"/>
	<path class="st0" d="M-1265.58-136.03c-0.35,0-0.7,0.01-1.05,0.01c-0.51,0-1.03,0-1.54,0c-0.22,0-0.22,0-0.22-0.21
		c0-0.9,0-1.81,0-2.71c0-0.19,0-0.19-0.19-0.19c-0.86,0-1.73,0-2.59,0c-0.14,0-0.19,0.04-0.19,0.18c0.01,0.91,0,1.82,0,2.73
		c0,0.21,0,0.21-0.21,0.21c-0.88,0-1.75,0-2.63,0c-0.18,0-0.19,0-0.19-0.19c0-0.91,0-1.82,0-2.73c0-0.2,0-0.2-0.19-0.2
		c-0.86,0-1.72,0-2.57,0c-0.19,0-0.19,0-0.19,0.18c0,0.91,0,1.83,0,2.74c0,0.19,0,0.19-0.19,0.19c-0.88,0-1.76,0-2.64,0
		c-0.14,0-0.18-0.04-0.18-0.18c0-1.51,0.01-3.02,0-4.53c0-0.79,0.61-1.54,1.55-1.54c3.95,0,7.9,0,11.85,0
		c0.43,0,0.81,0.13,1.11,0.44c0.09,0.1,0.17,0.21,0.25,0.32C-1265.58-139.69-1265.58-137.86-1265.58-136.03z"/>
	<path class="st0" d="M-1290.19-153.15c-2.8,0-5.59-0.01-8.39,0c-0.84,0-1.53,0.39-2.08,1.01c-0.48,0.54-0.73,1.21-0.77,1.94
		c0,0.09,0.01,0.19,0.01,0.28c0,1.54,0,3.09,0,4.63c0,0.2-0.02,0.22-0.21,0.14c-0.39-0.17-0.81-0.22-1.23-0.22
		c-2.42-0.01-4.85,0-7.27,0c-0.05,0-0.09,0-0.14,0c-0.11,0.01-0.17-0.03-0.16-0.15c0-0.04,0-0.07,0-0.11c0-3.84,0-7.67,0-11.51
		c0-0.17,0.05-0.27,0.18-0.38c0.55-0.47,1.12-0.93,1.67-1.39c0.54-0.45,1.09-0.91,1.63-1.36c0.56-0.47,1.12-0.93,1.67-1.4
		c0.55-0.46,1.09-0.91,1.64-1.37c0.56-0.47,1.13-0.94,1.69-1.41c0.54-0.45,1.08-0.9,1.62-1.35c0.55-0.46,1.1-0.92,1.65-1.38
		c0.55-0.46,1.11-0.92,1.66-1.39c0.56-0.47,1.12-0.93,1.67-1.4c0.54-0.45,1.08-0.9,1.62-1.35c0.57-0.48,1.15-0.95,1.71-1.43
		c0.34-0.29,0.7-0.54,1.01-0.86c0.07-0.07,0.14-0.07,0.22,0c0.57,0.49,1.16,0.97,1.73,1.45c0.25,0.21,0.5,0.4,0.74,0.61
		c0.57,0.49,1.16,0.97,1.73,1.45c0.25,0.21,0.5,0.4,0.74,0.61c0.57,0.49,1.16,0.97,1.74,1.45c0.53,0.44,1.06,0.88,1.59,1.32
		c0.57,0.48,1.15,0.96,1.73,1.44c0.25,0.21,0.51,0.42,0.76,0.63c0.57,0.49,1.15,0.96,1.73,1.44c0.53,0.44,1.05,0.88,1.57,1.32
		c0.57,0.47,1.14,0.95,1.71,1.42c0.55,0.46,1.09,0.91,1.64,1.37c0.56,0.47,1.11,0.94,1.67,1.39c0.1,0.08,0.18,0.18,0.28,0.25
		c0.05,0.04,0.07,0.09,0.07,0.15c0,0.05,0,0.09,0,0.14c0,3.84,0,7.67,0,11.51c0,0.05,0,0.09,0,0.14c0,0.09-0.04,0.13-0.13,0.12
		c-0.05,0-0.09,0-0.14,0c-2.36,0-4.73,0-7.09,0c-0.41,0-0.82,0.04-1.22,0.14c-0.1,0.02-0.18,0.09-0.28,0.11
		c-0.09,0.02-0.14,0.01-0.13-0.09c0-0.04,0-0.08,0-0.13c0-2.02,0-4.05,0-6.07c0-0.53-0.13-1.01-0.53-1.38
		c-0.23-0.22-0.52-0.32-0.83-0.36c-0.09-0.01-0.19,0-0.28,0C-1284.71-153.15-1287.45-153.15-1290.19-153.15
		C-1290.19-153.15-1290.19-153.15-1290.19-153.15z"/>
	<path class="st0" d="M-1298.46-143.05c0-2.27,0-4.55,0-6.82c0-0.21,0-0.21,0.21-0.21c1.9,0,3.79,0,5.69,0c0.2,0,0.21,0.01,0.21,0.2
		c0,4.55,0,9.11,0,13.66c0,0.19,0,0.19-0.2,0.19c-1.9,0-3.8,0-5.71,0c-0.2,0-0.2,0-0.2-0.2
		C-1298.46-138.5-1298.46-140.77-1298.46-143.05z"/>
	<path class="st0" d="M-1289.39-143.07c0-2.27,0-4.53,0-6.8c0-0.21,0-0.21,0.22-0.21c1.89,0,3.78,0,5.66,0c0.22,0,0.22,0,0.22,0.23
		c0,4.54,0,9.08,0,13.62c0,0.21,0,0.21-0.21,0.21c-1.9,0-3.79,0-5.69,0c-0.21,0-0.21,0-0.21-0.21
		C-1289.39-138.51-1289.39-140.79-1289.39-143.07z"/>
	<path class="st0" d="M-1308.9-142.27c1.97,0,3.94,0,5.92,0c0.45,0,0.85,0.15,1.16,0.5c0.29,0.34,0.41,0.74,0.41,1.19
		c0,1.46,0,2.93,0,4.39c0,0.13-0.04,0.18-0.18,0.18c-0.89-0.01-1.78-0.01-2.67,0c-0.14,0-0.18-0.04-0.18-0.18
		c0.01-0.91,0-1.82,0-2.73c0-0.2,0-0.21-0.2-0.21c-0.85,0-1.71,0-2.56,0c-0.2,0-0.2,0-0.2,0.2c0,0.9,0,1.81,0,2.71
		c0,0.19,0,0.2-0.19,0.2c-0.88,0-1.76,0-2.64,0c-0.19,0-0.19,0-0.19-0.19c0-0.91,0-1.82,0-2.73c0-0.2,0-0.2-0.19-0.2
		c-0.86,0-1.72,0-2.59,0c-0.14,0-0.18,0.04-0.18,0.18c0.01,0.91,0,1.83,0,2.74c0,0.19,0,0.19-0.2,0.19c-0.88,0-1.75,0-2.63,0
		c-0.18,0-0.18,0-0.18-0.19c0-1.51,0-3.01,0-4.52c0-0.8,0.62-1.55,1.54-1.55C-1312.87-142.27-1310.88-142.27-1308.9-142.27z"/>
	<path class="st0" d="M-1275.43-181.22c1.14,0,2.28,0.01,3.41,0c1.06-0.02,1.84,1.08,1.48,2.1c-0.2,0.56-0.57,0.91-1.16,1.04
		c-0.08,0.02-0.16,0.01-0.24,0.02c-0.16,0.01-0.37-0.07-0.47,0.04c-0.1,0.11-0.03,0.31-0.03,0.47c0,1.85,0,3.69,0,5.54
		c0,0.53,0,1.05,0,1.58c0,0.05,0.02,0.13-0.04,0.15c-0.05,0.02-0.09-0.04-0.13-0.07c-0.39-0.32-0.79-0.63-1.17-0.97
		c-0.26-0.23-0.54-0.43-0.8-0.66c-0.56-0.48-1.13-0.94-1.69-1.41c-0.53-0.45-1.07-0.9-1.61-1.34c-0.17-0.14-0.33-0.3-0.51-0.43
		c-0.08-0.06-0.07-0.13-0.07-0.21c0-0.81,0-1.62,0-2.43c0-0.24,0-0.24-0.24-0.24c-0.24,0-0.48,0.02-0.71-0.06
		c-0.79-0.29-1.23-1.17-0.96-2.02c0.19-0.6,0.87-1.09,1.53-1.07C-1277.7-181.2-1276.56-181.22-1275.43-181.22z"/>
</g>
<text transform="matrix(0.9742 0 0 1 -1412.5664 -97.5187)" style="fill:#FF4B55; font-family:'AvantGardeITCbyBT-Medium'; font-size:12.7639px;">Clothes</text>
<g>
	<path class="st1" d="M227.93,69.36c4.84-5.74,9.39-10.46,15.42-13.55c1.1-0.56,2.33-0.87,3.4-1.46c3.87-2.16,10.79,1.79,12.01-2.48
		c2.12-7.43,3.79-15.4,2.12-23.38c-0.2-0.93-0.73-1.8-0.89-2.73c-0.46-2.7-2.31-6.05,1.66-7.44c3.76-1.31,6.92,0.34,8.49,3.93
		c3.46,7.91,7.13,15.69,7.89,24.5c1.73,20.01-0.25,39.11-12.33,56.35c-13.72,19.58-15.98,40.64-8.57,63.02
		c10.01,30.23,10.46,61.69,12.69,92.93c0.44,6.15-3.9,7.05-8.25,8.14c-18.51,4.64-37.24,5.78-56.26,3.45
		c-19.38-2.37-38.12-6.57-55.81-14.87c-6.3-2.95-8.72-6.05-6.76-13.29c8.57-31.68,16.02-63.66,32.78-92.68
		c12.11-20.96,8.86-43.03,4.53-65.1c-5.1-25.97,1.2-49.21,18.03-69.95c2.59-3.19,5.79-4.89,9.68-2.55c4.29,2.58,1.24,5.58-0.39,7.94
		c-5.14,7.45-3.84,16.14-5.47,24.26c-0.35,1.76,0.65,2.77,2.35,2.99C217.26,49.06,222.29,58.86,227.93,69.36z"/>
	<path class="st1" d="M64.81,144.16c-2.8,6.39-6.34,9.66-9.47,13.27c-3.41,3.93-6.23,3.56-9.91,0.28
		c-12.21-10.91-24.5-21.76-37.03-32.33c-4.53-3.82-4.72-7.1-0.15-10.44c15.4-11.26,28.79-24.63,42.68-37.46
		c7.92-7.31,15.68-14.8,26.03-18.9c3.53-1.4,3.16-3.72,2.92-6.4c-0.35-3.88,1.34-4.94,5.39-4.23c23.57,4.14,46.55,3.18,68.16-8.13
		c0.65-0.34,1.82-0.91,2.01-0.71c4.26,4.4,12.47,9.5,11.87,13.27c-2.31,14.49,0.71,28.22,3.45,41.93
		c4.6,23.03,1.98,44.73-9.87,65.24c-16.03,27.74-22.95,58.4-30.88,88.72c-1.25,4.77-3.05,6.67-8.26,6.99
		c-9.67,0.6-19.26,2.22-28.92,3.16c-10.01,0.98-13.09-1.6-14.27-10.99c-4.01-32.04-8.08-64.07-12.16-96.1
		C66.19,149.69,65.69,148.1,64.81,144.16z M16.78,116.32c-1.15,1.18-2.39,2.06-3.07,3.24c-1.26,2.18,1.17,2.86,2.27,3.83
		c10.04,8.9,20.17,17.72,30.3,26.53c1.73,1.5,3.21,3.92,5.92,0.82c2.32-2.66,0.21-3.8-1.38-5.19
		c-10.27-9.02-20.56-18.01-30.87-26.99C19.04,117.79,17.99,117.18,16.78,116.32z"/>
</g>
<text transform="matrix(0.9355 0 0 1 -1518.8002 -98.8825)" style="fill:#FF4B55; font-family:'AvantGardeITCbyBT-Medium'; font-size:12.7639px;">Electronics</text>
<g>
	<path class="st0" d="M-141.73,226.65c-0.53,1.86-1.09,3.71-1.76,5.52c-0.47,1.28-1.01,2.54-1.72,3.71
		c-1.7,2.77-3.66,5.35-6.13,7.46c-6.08,5.23-13.13,7.96-21.2,7.96c-72.37-0.01-144.74-0.01-217.11,0.01
		c-4.77,0-9.37-0.74-13.73-2.72c-2.53-1.15-4.92-2.54-7.08-4.32c-2.42-2-4.49-4.27-6.25-6.88c-1.38-2.04-2.29-4.26-3.2-6.52
		c-1.2-2.98-1.52-6.07-1.57-9.22c-0.03-1.71,0.01-3.42-0.02-5.13c-0.01-0.55,0.12-0.84,0.72-0.75c0.12,0.02,0.24,0,0.37,0
		c35.56,0,71.13,0,106.69,0c1.25,0,1.1-0.13,1.1,1.08c0.01,4.32,0.01,8.64-0.01,12.96c0,0.59,0.13,0.8,0.76,0.79
		c20.28-0.02,40.57-0.02,60.85,0c0.59,0,0.74-0.18,0.74-0.75c-0.02-4.42,0-8.84-0.03-13.26c0-0.67,0.19-0.85,0.86-0.85
		c35.68,0.02,71.37,0.01,107.05,0.02c0.22,0,0.44,0.02,0.66,0.04C-141.73,219.43-141.73,223.04-141.73,226.65z"/>
	<path class="st0" d="M-281.44,200.88c-39.08,0-78.15,0-117.23,0c-1.18,0-1.05,0.16-1.05-1.06c0-50.7,0-101.4,0-152.1
		c0-1.24-0.13-1.05,1.04-1.05c78.15,0,156.3,0,234.46,0c1.05,0,1.05,0,1.05,1.05c0,50.7,0,101.4,0,152.1c0,1.23,0.12,1.06-1.04,1.06
		C-203.29,200.88-242.37,200.88-281.44,200.88z M-281.44,67.39c-31.83,0-63.66,0-95.49,0c-1.21,0-1.04-0.13-1.04,1.06
		c0,33.93,0,67.86,0,101.8c0,1.15-0.14,1.03,0.99,1.03c63.68,0,127.36,0,191.04,0c1.14,0,1,0.12,1-1.03c0-33.91,0-67.82,0-101.72
		c0-1.3,0.19-1.14-1.11-1.14C-217.84,67.39-249.64,67.39-281.44,67.39z"/>
</g>
<text transform="matrix(1.0231 0 0 1 -1610.3027 -96.8459)" style="fill:#FF4B55; font-family:'AvantGardeITCbyBT-Medium'; font-size:12.8117px;">Beauty</text>
<g>
	<path class="st0" d="M-750.22,99.45c23.47-23.85,51.24-33.99,83.82-28.5c25.3,4.26,45.4,17.48,59.84,38.74
		c30.6,45.03,15.4,107.35-34.46,133.04c1.09,0.71,2.19,0.41,3.18,0.42c16.61,0.02,33.21,0.01,49.82,0.02c4.2,0,4.77,0.61,4.61,4.78
		c-0.57,14.47-11.27,25.59-25.65,26.59c-2.54,0.18-5.09,0.17-7.64,0.17c-49.82,0.01-99.64,0.01-149.46,0.01
		c-20.98,0-41.96,0-62.93,0c-4.45,0-4.83-0.39-4.83-4.92c0-27.92,0.02-55.83-0.03-83.75c-0.01-2.99,0.25-5.41,4.13-5.09
		c1.41,0.12,1.33-0.88,1.33-1.82c0-3.36,0.05-6.73-0.02-10.09c-0.05-2.37,0.81-3.56,3.36-3.61c2.28-0.05,5.32,1.16,6.65-0.62
		c1.09-1.46,0.35-4.31,0.35-6.55c0.01-25.47-0.03-50.94,0.07-76.41c0.01-2.45-0.46-3.57-3.12-3.23c-1.8,0.23-3.72-0.08-3.7-2.49
		c0.03-2.5,2.06-2.58,3.79-2.31c3.31,0.52,2.84-1.6,3.03-3.66c0.23-2.54-0.8-3.18-3.11-2.99c-2.02,0.17-4.07,0.03-6.11,0.03
		c-1.6,0-2.94-0.5-2.99-2.31c-0.06-1.98,1.35-2.56,3.07-2.57c2.34-0.02,4.69-0.13,7.03,0.02c2.61,0.17,2.11-1.62,2.03-3.04
		c-0.08-1.39,0.95-3.52-1.98-3.39c-2.34,0.11-4.69,0.05-7.03,0c-1.67-0.04-3.16-0.55-3.11-2.55c0.05-2.04,1.58-2.34,3.25-2.32
		c1.94,0.02,3.9-0.23,5.8,0.05c3.13,0.45,3.1-1.29,3.17-3.57c0.07-2.34-0.5-3.35-3.01-3.06c-1.91,0.22-3.87,0.02-5.8,0.05
		c-1.8,0.03-3.45-0.33-3.39-2.52c0.06-2.19,1.77-2.41,3.53-2.39c2.24,0.03,4.49-0.11,6.72,0.03c2.15,0.13,2.11-1.27,1.83-2.55
		c-0.29-1.39,1.41-3.82-1.71-3.93c-2.44-0.09-4.89,0-7.33-0.04c-1.68-0.03-3.14-0.51-3.06-2.55c0.07-1.84,1.45-2.29,3.01-2.31
		c2.44-0.03,4.89,0.02,7.34-0.04c3.13-0.08,1.48-2.5,1.76-3.89c0.26-1.3,0.27-2.8-1.86-2.51c-0.1,0.01-0.2,0-0.31,0
		c-1.97-0.09-4.59,0.47-4.52-2.6c0.06-2.91,2.63-2.35,4.44-2.24c2.02,0.12,2.48-0.75,2.31-2.51c-0.1-1.11-0.04-2.24,0.01-3.36
		c0.07-1.45,0.91-2.27,2.32-2.32c1.43-0.05,2.24,0.84,2.49,2.2c0.09,0.49,0.1,1.02,0.04,1.52c-0.34,3,0.02,5.24,4,4.46
		c1.47-0.29,2.65,0.55,2.76,2.15c0.13,1.78-1.03,2.52-2.66,2.67c-0.3,0.03-0.62-0.03-0.91,0.03c-1.03,0.21-2.66-0.66-3,0.63
		c-0.42,1.62-0.23,3.45-0.02,5.15c0.1,0.83,1.17,0.61,1.85,0.62c2.34,0.03,4.69,0.02,7.03,0.03c1.59,0.01,2.97,0.54,3.05,2.29
		c0.09,1.96-1.34,2.55-3.06,2.57c-2.04,0.02-4.08-0.06-6.11,0.05c-0.99,0.06-2.57-0.68-2.81,0.92c-0.25,1.67-0.12,3.45,0.17,5.12
		c0.12,0.68,1.26,0.39,1.94,0.39c2.34,0.03,4.69,0.02,7.03,0.02c1.67,0,2.87,0.76,2.85,2.47c-0.02,1.71-1.24,2.43-2.9,2.42
		c-2.34-0.01-4.69,0.06-7.03-0.02c-1.45-0.05-2.17,0.22-2.22,1.96c-0.14,4.61-0.23,4.61,4.49,4.61c1.63,0,3.26,0.03,4.89,0.01
		c1.54-0.01,2.68,0.67,2.77,2.22c0.11,1.75-1.13,2.56-2.74,2.62c-2.44,0.09-4.9,0.17-7.33,0.02c-2.64-0.16-2.09,1.65-2,3.04
		c0.1,1.35-1.02,3.53,1.94,3.39c2.34-0.11,4.69-0.02,7.03-0.01c1.75,0,3.14,0.68,3.09,2.58c-0.05,1.72-1.37,2.33-3,2.31
		c-2.34-0.03-4.69,0.08-7.03-0.01c-3.16-0.13-1.88,2.22-2.03,3.64c-0.15,1.42-0.55,3.3,2.05,2.95c0.5-0.07,1.02,0.01,1.53-0.01
		c1.73-0.05,3.16,0.42,3.13,2.44c-0.03,1.99-1.54,2.63-3.19,2.41c-3.02-0.42-3.64,0.76-3.63,3.66c0.12,26.69,0.11,53.39,0.01,80.08
		c-0.01,2.54,0.67,3.26,3.21,3.19c7.29-0.19,7.29-0.83,7.19,7.33c-0.01,1.22,0.02,2.45-0.01,3.67c-0.06,2.4-0.57,4.92,3.36,4.67
		c1.52-0.1,1.95,1.55,1.95,2.98c0.01,2.95,0.17,5.92-0.04,8.86c-0.17,2.5,0.79,3.11,3.14,3.03c2.11-0.07,3.37-0.18,3.25-2.9
		c-0.23-5.08-0.02-10.19-0.07-15.28c-0.04-3.34,0.93-6.26,3.5-8.44c1.09-0.93,1.26-1.98,1.25-3.24c-0.03-2.95-0.06-5.91,0.01-8.86
		c0.05-2.24-0.69-4.75,2.22-6.09c0.84-0.38,0.37-1.69,0.38-2.57c0.03-10.09,0.1-20.17-0.02-30.26c-0.04-3.73,1.19-6.66,3.83-9.25
		c6.83-6.71,13.58-13.51,20.33-20.3c1.8-1.81,3.66-3.37,6.43-2.27c2.88,1.15,3.29,3.58,3.2,6.29
		C-750.27,94.91-750.22,96.91-750.22,99.45z M-742.89,184.85c0.01,0,0.01,0,0.02,0c0,2.34,0.09,4.69-0.03,7.03
		c-0.1,1.82,0.36,3.37,1.33,4.88c13.71,21.45,33.33,32.98,58.72,33.34c42.86,0.61,75.67-37.84,68.85-80.19
		c-5.23-32.44-32.45-56.62-65.98-58.21c-30.71-1.46-60.53,20.02-68.92,50.38c-0.68,2.44-1.47,4.89-1.29,7.49
		c0.05,0.66-0.32,1.56,0.52,1.91c2.23,0.93,1.96,2.82,1.96,4.66c-0.01,3.16,0.07,6.32-0.03,9.48c-0.06,1.73,0.29,3.03,1.7,4.24
		c2.19,1.87,3.11,4.48,3.16,7.36C-742.86,179.76-742.89,182.31-742.89,184.85z M-742.88,203.95c0,5.75,0.15,10.71-0.06,15.66
		c-0.1,2.4,0.77,3.96,2.49,5.47c6.77,5.97,14.2,10.87,22.38,14.7c5.06,2.37,10.19,3.58,15.87,3.47c14.77-0.27,29.54-0.11,44.32-0.07
		c1.87,0,3.6-0.33,5.35-0.96c39.68-14.21,63.59-55.63,55.09-97.67c-7.1-35.1-28.74-58.33-63.35-67.22
		c-34.62-8.89-64.26,1.54-88.04,28.3c-1.01,1.13-1.43,2.32-1.41,3.85c0.08,6.21,0.02,12.43,0.06,18.64c0,0.57-0.46,1.39,0.47,1.78
		c15.17-31.98,48.75-47.94,80.99-41.75c33.04,6.34,56.54,32.3,60.23,65.98c3.4,31.01-14.92,61.99-44.28,74.79
		C-683.26,242.22-720.53,233.88-742.88,203.95z M-665.21,248.05c-24.85,0-49.7,0.04-74.55-0.06c-2.53-0.01-3.23,0.61-3.2,3.17
		c0.07,5.18,0.87,10.48-0.41,15.51c-0.8,3.13,0.04,3.19,2.58,3.19c42.37-0.06,84.73-0.04,127.1-0.05c1.83,0,3.67-0.07,5.49-0.24
		c9.75-0.94,17.74-8.58,19.56-18.25c0.55-2.93-0.28-3.33-2.94-3.32C-616.12,248.09-640.67,248.05-665.21,248.05z M-811.36,243.32
		c2.96-2.11,5.68-4.05,8.4-6c1.44-1.03,3.03-2.28,4.49-0.33c1.61,2.15-0.25,3.3-1.74,4.38c-3.22,2.33-6.43,4.66-9.71,6.9
		c-1.31,0.9-1.87,1.94-1.84,3.55c0.08,5.19,0.1,10.39,0,15.58c-0.04,1.89,0.64,2.44,2.48,2.43c11.31-0.06,22.61-0.07,33.92,0
		c1.93,0.01,2.46-0.73,2.39-2.52c-0.11-2.85-0.03-5.7-0.03-8.55c0-16.81,0.01-33.61,0-50.42c0-5.71-1.75-7.43-7.51-7.43
		c-8.25-0.01-16.5-0.03-24.75,0.01c-4.37,0.02-6.37,1.94-6.42,6.33c-0.08,7.13-0.03,14.26-0.01,21.39c0,0.48,0.12,0.95,0.24,1.9
		c3.18-2.26,6.06-4.28,8.91-6.34c1.47-1.06,2.97-1.71,4.22,0.1c1.15,1.67,0.07,2.85-1.27,3.81c-2.73,1.96-5.3,4.21-8.23,5.79
		C-811.69,235.98-812.39,238.95-811.36,243.32z M-747.77,221.01c0-14.25,0.02-28.5-0.01-42.75c-0.01-4.52-2.03-6.57-6.5-6.59
		c-8.55-0.03-17.1-0.03-25.65,0c-4.49,0.02-6.44,2-6.47,6.58c-0.04,4.68,0.21,9.38-0.09,14.04c-0.2,3.17,0.83,4.04,3.88,3.8
		c3-0.23,6.1-0.44,8.94,1.17c4.21,2.4,5.56,6.19,5.56,10.78c-0.02,19.54,0.04,39.09-0.06,58.63c-0.01,2.58,0.75,3.36,3.26,3.2
		c3.14-0.21,6.31-0.04,9.46-0.05c5.99-0.02,7.67-1.68,7.68-7.58C-747.77,248.49-747.77,234.75-747.77,221.01z M-829.01,227.72
		c0,13.03,0.07,26.06-0.06,39.1c-0.02,2.47,0.73,3.25,3.09,3.03c1.82-0.17,3.68-0.22,5.49,0c3.01,0.36,3.97-0.57,3.95-3.78
		c-0.17-19.03-0.09-38.06-0.06-57.09c0-1.62,0.05-3.27,0.35-4.86c0.79-4.15,4.41-7.44,8.59-8c5.18-0.69,5.18-0.69,5.18-6.11
		c0-0.51-0.05-1.02,0.01-1.53c0.22-1.92-0.45-2.7-2.53-2.66c-7.13,0.11-14.25,0.13-21.38,0c-2.22-0.04-2.69,0.77-2.68,2.82
		C-828.98,201.66-829.02,214.69-829.01,227.72z M-755.25,91.23c-7.77,7.79-15.03,15.08-22.31,22.35c-1.27,1.26-1.5,2.79-1.49,4.48
		c0.02,10.29,0.05,20.58-0.03,30.87c-0.02,1.92,0.42,2.66,2.51,2.62c6.31-0.13,12.64-0.12,18.95,0c1.98,0.04,2.57-0.52,2.57-2.54
		c-0.08-18.55-0.04-37.09-0.05-55.64C-755.11,92.9-755.17,92.42-755.25,91.23z M-767.34,166.77c2.34,0,4.68,0,7.02,0
		c7.94,0,7.88,0,7.75-8c-0.03-1.86-0.52-2.44-2.41-2.41c-6.31,0.11-12.62,0.04-18.92,0.04c-8.32,0-8.27,0-7.81,8.35
		c0.09,1.61,0.62,2.08,2.17,2.05C-775.48,166.71-771.41,166.77-767.34,166.77z M-815.94,170.37c-2.13,0.27-5.52-1.15-7.14,0.53
		c-1.6,1.66-0.25,5.03-0.53,7.63c-0.23,2.14,0.75,2.53,2.62,2.47c3.45-0.12,6.91-0.17,10.36,0.01c2.3,0.12,2.92-0.62,2.91-2.9
		C-807.79,170.37-807.69,170.37-815.94,170.37z M-742.87,229.46c0,4.49,0.02,8.23-0.01,11.97c-0.01,1.05,0.15,1.74,1.47,1.73
		c5.94-0.04,11.89-0.02,17.83-0.02C-730.24,239.14-736.53,234.9-742.87,229.46z"/>
	<path class="st0" d="M-657.28,131.01c-0.02,1.02-0.68,1.67-1.33,2.32c-15.48,15.48-30.97,30.96-46.46,46.44
		c-1.28,1.28-2.7,2.12-4.19,0.52c-1.36-1.46-0.5-2.79,0.68-3.97c15.49-15.48,30.98-30.96,46.46-46.44c0.98-0.98,2.01-1.78,3.5-1.08
		C-657.7,129.24-657.28,130-657.28,131.01z"/>
	<path class="st0" d="M-640.33,134.85c-0.15,1.29-0.85,2.01-1.57,2.74c-3.31,3.29-6.61,6.58-9.91,9.88
		c-1.23,1.23-2.58,2.3-4.16,0.72c-1.55-1.56-0.57-2.92,0.68-4.16c3.46-3.43,6.89-6.88,10.34-10.31c0.9-0.9,1.89-1.57,3.24-0.88
		C-640.8,133.3-640.49,134.12-640.33,134.85z"/>
	<path class="st0" d="M-722.99,151.35c-1.15-0.03-1.91-0.46-2.4-1.32c-0.51-0.89-0.47-1.82,0.22-2.53c3.25-3.33,6.52-6.64,9.85-9.89
		c0.9-0.88,2.08-0.84,3.04,0c1.07,0.93,1.27,2.28,0.35,3.25c-3.2,3.38-6.53,6.63-9.85,9.89
		C-722.12,151.09-722.67,151.2-722.99,151.35z"/>
	<path class="st0" d="M-715.05,188.71c-0.02,0.69-0.36,1.4-0.95,2c-1.43,1.43-2.85,2.88-4.3,4.29c-1.16,1.13-2.48,1.52-3.72,0.2
		c-1.07-1.15-0.88-2.44,0.16-3.52c1.54-1.61,3.13-3.17,4.73-4.71c0.81-0.77,1.8-0.89,2.81-0.38
		C-715.52,186.98-715.18,187.7-715.05,188.71z"/>
	<path class="st0" d="M-701.92,129.81c-0.07,1.77-4.15,5.85-5.63,5.71c-1.91-0.19-2.91-1.52-2.13-3.17c0.95-2,2.61-3.76,4.68-4.6
		C-703.28,127.04-702.13,128.16-701.92,129.81z"/>
	<path class="st0" d="M-648.47,258.96c-5.91,0-11.82,0-17.72,0c-0.61,0-1.22,0.01-1.83-0.01c-1.75-0.04-3.11-0.77-3.03-2.65
		c0.07-1.74,1.41-2.26,3.05-2.24c4.18,0.04,8.35,0.01,12.53,0.01c8.76,0,17.52,0.02,26.28-0.01c1.78-0.01,3.5,0.25,3.49,2.41
		c-0.02,2.1-1.73,2.49-3.5,2.49C-635.64,258.96-642.06,258.96-648.47,258.96z"/>
	<path class="st0" d="M-610.92,254.11c1.52,0,3.05-0.05,4.57,0.02c1.28,0.06,2.08,0.84,2.22,2.1c0.16,1.45-0.71,2.5-2.03,2.57
		c-3.23,0.16-6.49,0.15-9.72-0.01c-1.2-0.06-1.98-1.12-1.92-2.38c0.07-1.38,0.85-2.26,2.33-2.3c1.52-0.03,3.04-0.01,4.57-0.01
		C-610.92,254.11-610.92,254.11-610.92,254.11z"/>
	<path class="st0" d="M-774.79,130.02c0-2.95,0-5.9,0-8.85c0-1.64,0.58-2.85,2.41-2.83c1.82,0.02,2.44,1.29,2.45,2.87
		c0.03,5.9,0.03,11.8-0.01,17.7c-0.01,1.58-0.64,2.84-2.48,2.83c-1.85-0.01-2.38-1.25-2.38-2.87
		C-774.79,135.92-774.79,132.97-774.79,130.02z"/>
</g>
<rect x="-389.46" y="54.99" class="st2" width="214.38" height="136.42"/>
<g>
	<g>
		<path class="st0" d="M88.32,58.61c1.06,0.48,2.22,0.74,3.35,0.99c3.88,0.83,7.86,1.2,11.81,1.43c14.65,0.89,29.54,0.23,43.84-3.25
			c3.2-0.78,6.44-1.64,9.52-2.84c1.33-0.52,0.75-2.7-0.6-2.17c-2.35,0.92-4.81,1.61-7.24,2.26c-6.31,1.68-12.77,2.82-19.27,3.44
			c-7.8,0.74-15.71,0.78-23.53,0.45c-4.3-0.18-8.63-0.48-12.87-1.28c-1.06-0.2-2.11-0.43-3.15-0.74c-0.25-0.08-0.49-0.17-0.74-0.25
			c-0.31-0.1-0.09-0.03,0.01,0.01C88.15,56.07,87.01,58.01,88.32,58.61L88.32,58.61z"/>
	</g>
</g>
</svg>
