<?xml version="1.0" encoding="utf-8"?>
<!-- Generator: Adobe Illustrator 26.0.1, SVG Export Plug-In . SVG Version: 6.00 Build 0)  -->
<svg version="1.1" id="Layer_1" xmlns="http://www.w3.org/2000/svg" xmlns:xlink="http://www.w3.org/1999/xlink" x="0px" y="0px"
	 viewBox="0 0 283.46 283.46" style="enable-background:new 0 0 283.46 283.46;" xml:space="preserve">
<style type="text/css">
	.st0{fill:#172B4D;}
	.st1{fill:none;stroke:#172B4D;stroke-width:6;stroke-miterlimit:10;}
	.st2{fill:none;stroke:#172B4D;stroke-width:3;stroke-miterlimit:10;}
	.st3{fill:#FFFFFF;}
</style>
<text transform="matrix(0.9742 0 0 1 -1081.3771 -406.0211)" style="fill:#FF4B55; font-family:'AvantGardeITCbyBT-Medium'; font-size:13.0872px;">Shoes</text>
<g>
	<path class="st0" d="M-1050.16-435.87c0.03,0.75,0.02,0.79-0.47,0.73c-0.99-0.12-1.98-0.18-2.97-0.37
		c-0.85-0.16-1.68-0.39-2.51-0.65c-0.92-0.28-1.8-0.68-2.68-1.09c-1.19-0.55-2.29-1.25-3.33-2.03c-1.44-1.08-2.83-2.22-3.96-3.65
		c-0.75-0.95-1.39-1.96-1.94-3.05c-0.59-1.19-1.1-2.41-1.58-3.65c-0.37-0.95-0.73-1.9-1.11-2.85c-0.35-0.87-0.68-1.75-1.08-2.6
		c-0.8-1.71-1.64-3.41-2.94-4.79c-0.99-1.05-2.1-1.96-3.17-2.92c-1.21-1.1-2.4-2.21-3.33-3.59c-0.69-1.03-1.08-2.16-0.83-3.45
		c0.09-0.48,0.33-0.88,0.59-1.27c0.97-1.46,1.96-2.91,2.81-4.46c0.03-0.06,0.07-0.12,0.09-0.18c0.06-0.15,0.12-0.36,0.28-0.34
		c0.14,0.02,0.19,0.23,0.25,0.38c0.49,1.25,1.33,2.12,2.58,2.57c0.56,0.2,1.13,0.27,1.72,0.27c1.09,0,2.18,0,3.27-0.06
		c0.84-0.05,1.67-0.07,2.49,0.23c0.76,0.28,1.32,0.76,1.71,1.46c0.38,0.69,0.52,1.46,0.74,2.21c0.25,0.85,0.46,1.7,0.69,2.56
		c0.11,0.4,0.18,0.81,0.28,1.21c0.22,0.85,0.38,1.72,0.57,2.59c0.22,1,0.46,1.99,0.66,2.99c0.1,0.47,0.18,0.95,0.3,1.41
		c0.37,1.51,0.74,3.02,1.45,4.42c0.51,1,1.16,1.88,2.16,2.31c0.72,0.31,0.66,0.94,0.88,1.45c0.34,0.8,0.66,1.6,1.09,2.35
		c0.65,1.11,1.39,2.17,2.18,3.18c0.69,0.88,1.4,1.74,2.08,2.62c0.94,1.21,1.85,2.45,2.46,3.88
		C-1050.38-437.27-1050.18-436.48-1050.16-435.87z M-1073.56-466.69c-0.09,0.02-0.15,0.07-0.16,0.14c-0.02,0.26-0.22,0.41-0.33,0.62
		c-0.18,0.33-0.3,0.74-0.51,0.98c-0.27,0.3-0.39,0.68-0.64,0.97c-0.11,0.13-0.08,0.25,0.08,0.37c0.77,0.55,1.48,1.18,2.11,1.9
		c1.14,1.3,1.99,2.8,2.73,4.36c0.75,1.58,1.37,3.22,2.01,4.85c0.61,1.53,1.25,3.04,2.03,4.49c0.19,0.35,0.21,0.36,0.45,0.06
		c0.51-0.65,1.01-1.32,1.54-1.96c0.26-0.31,0.29-0.56,0.04-0.88c-0.1-0.12-0.15-0.28-0.23-0.42c-0.4-0.71-0.72-1.45-1.06-2.18
		c-0.24-0.53-0.44-1.08-0.66-1.62c-0.44-1.08-0.9-2.15-1.34-3.23c-0.36-0.89-0.74-1.77-1.18-2.62c-0.58-1.1-1.22-2.16-2-3.14
		c-0.78-0.98-1.68-1.8-2.65-2.56C-1073.41-466.62-1073.5-466.65-1073.56-466.69z"/>
	<path class="st0" d="M-1087.9-450.16c5.7,3.23,11.47,6.33,17.43,9.15c-0.05-0.34-0.18-0.59-0.42-0.76c-0.9-0.65-1.9-1.12-2.84-1.7
		c-0.96-0.59-1.93-1.16-2.89-1.75c-1.68-1.04-3.35-2.09-5.02-3.13c-0.3-0.19-0.63-0.32-0.86-0.61c0.31,0.01,0.58,0.17,0.83,0.3
		c1.66,0.83,3.35,1.58,5.04,2.35c0.82,0.38,1.65,0.75,2.48,1.12c0.69,0.31,1.4,0.59,2.1,0.88c0.09,0.04,0.17,0.15,0.27,0.05
		c0.08-0.08,0.04-0.2,0.01-0.3c-0.19-0.66-0.38-1.32-0.58-1.98c-0.21-0.69-0.44-1.37-0.65-2.06c-0.32-1.05-0.7-2.08-1.19-3.06
		c-0.59-1.17-1.35-2.19-2.33-3.03c-0.65-0.56-1.38-1.02-2.08-1.51c-1.27-0.88-2.54-1.77-3.66-2.85c-0.92-0.89-1.73-1.87-2.2-3.09
		c-0.52-1.36-0.54-2.75-0.01-4.11c0.17-0.44,0.48-0.82,0.75-1.21c0.11-0.15,0.2-0.05,0.21,0.1c0.03,0.28,0.13,0.54,0.18,0.8
		c0.19,1.15,0.77,2.1,1.43,3c0.91,1.25,2.06,2.26,3.21,3.26c0.82,0.72,1.62,1.46,2.33,2.29c0.9,1.06,1.68,2.23,2.37,3.45
		c0.78,1.41,1.42,2.89,2.06,4.37c0.37,0.87,0.8,1.72,1.14,2.6c0.4,1,0.85,1.98,1.33,2.93c0.85,1.68,1.86,3.25,3.22,4.56
		c1.13,1.09,2.34,2.06,3.63,2.94c1.07,0.74,2.2,1.37,3.36,1.94c0.73,0.36,1.5,0.65,2.28,0.92c0.81,0.28,1.62,0.52,2.45,0.71
		c2.51,0.57,5.05,0.61,7.6,0.5c1.12-0.04,2.21-0.34,3.27-0.71c0.76-0.26,1.47-0.61,2.16-1.02c0.23-0.14,0.32-0.07,0.32,0.21
		c0,0.76-0.36,1.33-0.92,1.79c-0.6,0.49-1.31,0.8-2.04,1.03c-0.93,0.29-1.88,0.49-2.85,0.63c-2.17,0.31-4.33,0.32-6.51,0.15
		c-1.47-0.11-2.9-0.44-4.32-0.82c-1.04-0.28-2.06-0.68-3.07-1.11c-0.67-0.29-1.33-0.6-1.98-0.92c-1.02-0.49-2.01-1.06-3-1.61
		c-1.19-0.66-2.38-1.32-3.55-2.01c-1.16-0.68-2.28-1.41-3.43-2.11c-1.44-0.87-2.83-1.81-4.23-2.74c-1.28-0.85-2.53-1.74-3.79-2.62
		c-1.43-1.01-2.85-2.03-4.27-3.04c-0.86-0.62-1.72-1.25-2.57-1.87c-0.09-0.06-0.16-0.15-0.24-0.23
		C-1087.94-450.11-1087.92-450.14-1087.9-450.16z"/>
	<path class="st0" d="M-1053.54-452.18c0.95-0.03,1.85,0.15,2.72,0.53c0.15,0.07,0.27,0.14,0.32,0.32c0.3,1.01,0.81,1.91,1.43,2.75
		c1.04,1.41,2.33,2.56,3.66,3.69c1.09,0.92,2.16,1.86,3.06,2.99c1.18,1.48,1.58,3.15,1.29,5.03c-0.02,0.16-0.11,0.24-0.25,0.29
		c-0.78,0.3-1.59,0.46-2.39,0.71c-0.66,0.2-1.34,0.29-2,0.42c-0.75,0.15-1.51,0.18-2.27,0.26c-0.27,0.03-0.54,0.04-0.81,0.06
		c-0.21,0.01-0.32-0.08-0.31-0.31c0.04-0.64-0.11-1.26-0.21-1.88c-0.14-0.87-0.46-1.68-0.86-2.45c-0.74-1.44-1.73-2.69-2.79-3.9
		c-0.7-0.8-1.41-1.6-2.05-2.45c-0.87-1.16-1.69-2.37-2.22-3.75c-0.13-0.35-0.3-0.69-0.36-1.08c-0.02-0.16,0-0.26,0.16-0.33
		c0.53-0.21,1.06-0.42,1.61-0.59C-1055.05-452.12-1054.3-452.14-1053.54-452.18z"/>
	<path class="st0" d="M-1077.56-477.45c0-1.07,0.31-1.97,0.68-2.85c0.32-0.78,0.73-1.5,1.32-2.1c0.95-0.98,2.11-1.32,3.39-0.99
		c0.9,0.23,1.6,0.85,2.18,1.6c0.62,0.8,0.95,1.76,1.43,2.64c0.36,0.67,0.75,1.33,1.2,1.95c0.26,0.36,0.26,0.42-0.12,0.62
		c-0.51,0.26-1.06,0.43-1.63,0.51c-0.23,0.03-0.29-0.13-0.36-0.29c-0.3-0.72-0.63-1.42-1.04-2.08c-0.3-0.49-0.59-0.99-1.06-1.36
		c-0.74-0.6-1.34-0.4-1.85,0.2c-0.64,0.76-1.13,1.64-1.19,2.68c-0.04,0.57,0.18,1.04,0.67,1.34c0.33,0.2,0.67,0.34,1.07,0.4
		c1.08,0.15,2.15,0.12,3.22-0.04c1.22-0.19,2.43-0.46,3.46-1.23c0.78-0.58,1.37-1.35,1.86-2.19c0.35-0.59,0.7-1.18,1.31-1.53
		c0.27-0.16,0.54-0.31,0.85-0.39c0.9-0.23,1.82-0.21,2.69,0.05c0.94,0.28,1.66,0.85,2,1.86c0.32,0.95,0.4,1.92,0.53,2.9
		c0.16,1.18,0.37,2.36,0.67,3.51c0.08,0.32,0.02,0.34-0.28,0.23c-0.6-0.22-1.22-0.38-1.87-0.36c-0.86,0.03-1.73-0.05-2.59,0.1
		c-1.35,0.23-2.68,0.54-3.95,1.08c-0.18,0.08-0.24,0.02-0.3-0.13c-0.33-0.92-0.85-1.68-1.73-2.15c-0.6-0.32-1.24-0.45-1.91-0.47
		c-1.55-0.04-3.1,0.13-4.65,0.09c-0.83-0.02-1.6-0.23-2.31-0.64C-1077-475.15-1077.6-476.16-1077.56-477.45z"/>
	<path class="st0" d="M-1055.4-459.78c0.57,0,0.95-0.02,1.33,0c0.8,0.06,1.49,0.36,1.92,1.09c0.31,0.53,0.29,1.12,0.16,1.71
		c-0.03,0.16-0.14,0.14-0.26,0.09c-0.95-0.39-1.95-0.51-2.96-0.45c-1.22,0.07-2.42,0.26-3.6,0.58c-0.81,0.21-1.58,0.51-2.34,0.82
		c-0.21,0.09-0.35,0.08-0.42-0.2c-0.14-0.58-0.31-1.15-0.47-1.72c-0.06-0.21,0.01-0.31,0.22-0.42c1.51-0.75,3.09-1.16,4.75-1.38
		C-1056.46-459.74-1055.84-459.76-1055.4-459.78z"/>
	<path class="st0" d="M-1052.99-461.36c0,0.08,0,0.16,0,0.24c-0.03,0.61-0.06,0.61-0.61,0.39c-0.58-0.23-1.19-0.3-1.81-0.33
		c-1.18-0.05-2.36,0.06-3.51,0.31c-0.92,0.21-1.85,0.45-2.73,0.8c-0.19,0.07-0.36,0.17-0.55,0.25c-0.23,0.1-0.28,0.04-0.33-0.19
		c-0.12-0.64-0.26-1.28-0.4-1.92c-0.03-0.14,0-0.22,0.12-0.27c0.73-0.29,1.44-0.63,2.2-0.83c1.7-0.45,3.43-0.73,5.18-0.65
		c0.91,0.04,1.79,0.3,2.27,1.26C-1053-461.99-1052.99-461.68-1052.99-461.36z"/>
	<path class="st0" d="M-1057.07-467.24c0.75-0.02,1.5,0,2.18,0.42c0.67,0.42,0.98,1.02,0.93,1.81c-0.05,0.79-0.05,0.73-0.77,0.53
		c-0.96-0.27-1.96-0.38-2.96-0.24c-0.38,0.05-0.76,0.07-1.14,0.11c-1.28,0.16-2.51,0.53-3.73,0.96c-0.74,0.26-0.6,0.38-0.8-0.43
		c-0.12-0.48-0.17-0.97-0.3-1.45c-0.06-0.21,0.02-0.31,0.18-0.38c0.39-0.17,0.77-0.36,1.18-0.49c0.91-0.28,1.84-0.49,2.78-0.65
		C-1058.72-467.19-1057.89-467.23-1057.07-467.24z"/>
	<path class="st0" d="M-1055.01-468.9c0,0.04,0,0.17-0.02,0.29c-0.08,0.4-0.18,0.4-0.55,0.26c-0.62-0.23-1.27-0.34-1.93-0.39
		c-1.12-0.08-2.21,0.13-3.3,0.32c-1.02,0.18-2.04,0.42-2.98,0.9c-0.22,0.11-0.37,0.07-0.42-0.19c-0.11-0.62-0.26-1.23-0.48-1.83
		c-0.05-0.14,0.01-0.23,0.15-0.3c0.65-0.34,1.36-0.52,2.05-0.75c0.65-0.22,1.33-0.33,2-0.43c0.94-0.14,1.9-0.17,2.85-0.16
		c0.35,0.01,0.7,0.03,1.03,0.12c0.37,0.1,0.72,0.24,1,0.53C-1055.23-470.12-1055.01-469.59-1055.01-468.9z"/>
	<path class="st0" d="M-1053.82-455.91c0.33,0,0.65,0,0.98,0c1.55,0.02,2.43,1.18,2.3,2.7c-0.02,0.25-0.16,0.25-0.33,0.18
		c-0.36-0.13-0.71-0.27-1.07-0.4c-0.69-0.24-1.4-0.16-2.1-0.2c-0.79-0.04-1.56,0.12-2.32,0.33c-0.69,0.18-1.39,0.41-1.99,0.8
		c-0.49,0.31-0.85,0.09-1.2-0.15c-0.45-0.31-0.8-0.73-1.1-1.2c-0.16-0.24-0.1-0.38,0.12-0.49c0.64-0.34,1.31-0.58,1.99-0.82
		c1.06-0.38,2.18-0.53,3.28-0.7c0.47-0.07,0.96-0.01,1.44-0.01C-1053.82-455.89-1053.82-455.9-1053.82-455.91z"/>
</g>
<text transform="matrix(0.9742 0 0 1 -1000.8438 -405.2327)" style="fill:#FF4B55; font-family:'AvantGardeITCbyBT-Medium'; font-size:13.4913px;">Accessories</text>
<g>
	<path class="st0" d="M-946.51-462.53c-2.01,2.02-3.8,4.06-5.88,5.81c-0.39,0.33-0.38,0.73-0.38,1.16c0,1.43,0,2.86,0,4.29
		c0,1.34-0.16,2.6,1.18,3.66c1.07,0.84,0.72,2.62-0.35,3.54c-1.06,0.91-2.64,0.86-3.63-0.13c-0.99-0.99-1.16-2.74-0.08-3.58
		c1.09-0.84,1.14-1.81,1.11-2.97c-0.04-1.27-0.01-2.54-0.01-3.76c-0.54-0.19-0.75,0.14-1,0.32c-2.69,1.92-5.56,3.5-8.64,4.68
		c-0.84,0.32-1.26,0.71-1.13,1.64c0.06,0.42,0.05,0.86,0,1.28c-0.12,0.98,0.17,1.47,1.24,1.77c3.41,0.98,5.54,4.46,4.97,7.85
		c-0.59,3.51-3.59,6.08-7.08,6.08c-3.49,0-6.49-2.58-7.07-6.08c-0.57-3.4,1.56-6.87,4.97-7.85c1.06-0.3,1.35-0.79,1.24-1.77
		c-0.06-0.56-0.03-1.14-0.01-1.71c0.02-0.47-0.1-0.79-0.6-0.98c-1.78-0.68-3.51-1.47-5.18-2.4c-1.62-0.9-3.17-1.92-4.97-3.2
		c0,2.18-0.01,4.08,0.01,5.99c0,0.38,0.44,0.46,0.68,0.68c1.32,1.16,1.45,2.86,0.3,4.02c-1.07,1.07-2.8,1.04-3.84-0.06
		c-1.08-1.15-0.99-2.87,0.33-3.89c0.57-0.44,0.8-0.88,0.71-1.54c-0.01-0.05,0-0.1,0-0.14c0-2,0.32-4.07-0.09-5.98
		c-0.42-1.92-2.62-2.73-3.77-4.28c-0.64-0.87-1.4-1.66-2.38-2.8c0,1.91-0.01,3.48,0.01,5.06c0.01,0.46,0.5,0.52,0.77,0.77
		c1.21,1.1,1.32,2.81,0.23,3.93c-1.08,1.1-2.76,1.1-3.83-0.01c-1.08-1.12-1.01-2.92,0.29-3.89c0.64-0.48,0.81-0.96,0.75-1.66
		c0-0.05-0.01-0.1,0-0.14c0.65-4.53-0.71-8.55-2.95-12.43c-1.17-2.03-0.98-2.14,1.3-2.79c4.67-1.33,9.33-2.66,14-4
		c2.33-0.67,2.82-1.32,2.83-3.75c0-1.14,0.03-2.29-0.01-3.43c-0.02-0.68,0.11-1.05,0.92-1.04c3.57,0.04,7.15,0.04,10.72,0
		c0.82-0.01,0.93,0.38,0.92,1.04c-0.03,1.33-0.02,2.67,0,4c0.02,1.7,0.62,2.5,2.28,2.99c5.16,1.5,10.32,3.01,15.51,4.42
		c1.15,0.31,1.21,0.75,0.76,1.66c-0.57,1.15-0.94,2.43-1.66,3.47c-1.54,2.23-1.97,4.65-1.74,7.28c0.08,0.9,0.04,1.81,0,2.71
		c-0.03,0.7,0.12,1.18,0.76,1.66c1.3,0.98,1.36,2.77,0.28,3.89c-1.07,1.11-2.76,1.11-3.83,0c-1.08-1.12-1.02-2.9,0.26-3.9
		c0.61-0.47,0.81-0.94,0.79-1.66C-946.54-459.99-946.51-461.26-946.51-462.53z M-966.33-472.01c2.62,0.05,5.56-2.29,6.16-4.9
		c0.05-0.23,0.17-0.48-0.04-0.66c-1.79-1.56-1.55-3.67-1.48-5.7c0.04-1.04-0.37-1.29-1.33-1.26c-1.99,0.06-4,0.11-5.99-0.01
		c-1.4-0.08-1.81,0.39-1.71,1.75c0.14,1.85,0.18,3.74-1.42,5.14c-0.18,0.16-0.19,0.37-0.14,0.64
		C-971.88-474.61-968.85-472.05-966.33-472.01z M-958.59-454.6c-0.09-0.18-0.17-0.35-0.26-0.52c-0.64-1.11-1.32-2.21-1.9-3.35
		c-0.38-0.74-0.7-0.66-1.27-0.21c-1.31,1.03-2.62,2.62-4.12,2.66c-1.57,0.04-2.89-1.64-4.25-2.67c-0.6-0.45-0.9-0.5-1.26,0.23
		c-0.56,1.1-1.18,2.17-1.84,3.22c-0.39,0.61-0.32,0.93,0.33,1.31c2.02,1.17,4.12,2.18,6.29,3.03c0.41,0.16,0.78,0.23,1.23,0.05
		c2.26-0.89,4.46-1.91,6.53-3.18C-958.9-454.16-958.56-454.23-958.59-454.6z M-956.91-455.5c0.21-0.13,0.39-0.21,0.54-0.33
		c2.66-1.95,5.07-4.17,7.18-6.71c0.41-0.49,0.19-0.72-0.17-1.02c-1.13-0.95-2.26-1.89-3.36-2.88c-0.49-0.44-0.79-0.5-1.25,0.06
		c-1.6,1.96-3.37,3.76-5.28,5.41c-0.45,0.39-0.51,0.71-0.2,1.21c0.74,1.22,1.42,2.47,2.13,3.71
		C-957.21-455.85-957.05-455.69-956.91-455.5z M-972.77-460.04c0.13-0.54-0.14-0.7-0.34-0.88c-1.93-1.71-3.74-3.53-5.37-5.52
		c-0.43-0.53-0.73-0.39-1.15-0.02c-1.1,0.98-2.23,1.94-3.36,2.88c-0.44,0.36-0.57,0.62-0.15,1.13c2.09,2.49,4.45,4.69,7.08,6.6
		c0.2,0.14,0.5,0.52,0.7,0.19C-974.42-457.16-973.56-458.69-972.77-460.04z M-971.09-440.01c-0.94,2.61-0.13,5.1,2,6.46
		c2.06,1.32,4.8,1.06,6.58-0.62c1.66-1.57,2.13-4.02,1.11-5.73C-964.01-436.31-968.22-436.14-971.09-440.01z M-969.81-460.5
		c0.07-1.36,0.14-2.4,0.69-3.33c0.24-0.4,0.04-0.59-0.34-0.74c-4.25-1.69-6.75-5.12-8.85-8.94c-0.98-1.77-1.04-1.8-2.89-1.08
		c-0.56,0.22-0.63,0.42-0.33,0.92C-978.44-468.67-974.63-464.34-969.81-460.5z M-962.53-460.54c4.75-3.81,8.56-8.09,11.6-13.05
		c0.14-0.23,0.4-0.44,0.19-0.75c-0.48-0.73-2.55-0.64-2.97,0.13c-2.19,4.09-4.71,7.86-9.28,9.66c-0.41,0.16-0.5,0.41-0.27,0.77
		C-962.67-462.87-962.7-461.8-962.53-460.54z M-947.87-464.64c0.41,0,0.51-0.3,0.66-0.52c1.41-2.02,2.6-4.17,3.64-6.41
		c0.3-0.65,0.03-0.82-0.5-0.97c-1.19-0.32-2.4-0.58-3.55-1.01c-0.88-0.33-1.26-0.01-1.69,0.69c-0.73,1.21-1.51,2.41-2.37,3.54
		c-0.51,0.67-0.56,1.06,0.15,1.6c1.06,0.8,2.02,1.71,3.03,2.58C-948.28-464.96-948.06-464.79-947.87-464.64z M-984.23-473.7
		c-1.39,0.41-2.94,0.84-4.47,1.32c-0.65,0.2-0.17,0.64-0.06,0.91c0.75,1.74,1.67,3.4,2.69,5c1.32,2.06,1.32,2.06,3.12,0.5
		c0.75-0.65,1.49-1.32,2.27-1.94c0.48-0.38,0.48-0.68,0.13-1.17c-0.96-1.35-1.86-2.74-2.78-4.12
		C-983.5-473.47-983.65-473.78-984.23-473.7z M-965.96-443.44c-1.16,0.03-1.96,0.3-2.75,0.64c-1.07,0.47-1.09,1.15-0.57,2.05
		c1.13,1.93,3.75,2.39,5.41,0.9c0.61-0.55,1.23-1.23,1.08-2.07c-0.15-0.83-1.08-0.98-1.77-1.23
		C-965.1-443.33-965.68-443.38-965.96-443.44z M-964.44-461.22c-0.01-1.49-0.77-2.67-1.69-2.72c-0.98-0.06-1.81,1.15-1.82,2.64
		c0,0.24-0.01,0.48,0.04,0.71c0.22,0.96,0.57,1.95,1.71,1.95c1.14,0,1.49-1,1.71-1.96C-964.43-460.83-964.45-461.08-964.44-461.22z
		 M-966.17-465.74c2.34-0.01,2.48-0.2,1.41-2.24c-0.4-0.77-0.52-2.11-1.38-2.12c-0.98-0.01-1.07,1.37-1.49,2.16
		C-968.7-465.94-968.54-465.73-966.17-465.74z M-956.56-472.87c-1.1,0-1.98,0-2.86,0c-0.3,0-0.62,0.05-0.64,0.4
		c-0.09,1.36-0.5,2.7-0.33,4.33C-958.81-469.61-957.63-471.04-956.56-472.87z M-971.86-468.17c-0.16-1.56-0.28-2.86-0.42-4.15
		c-0.03-0.31-0.18-0.56-0.53-0.54c-0.95,0.04-1.92-0.19-2.95,0.17C-974.66-471.02-973.62-469.49-971.86-468.17z M-975.21-474.64
		c0.24,0,0.47-0.02,0.71,0c1.1,0.13,1.3-0.21,0.8-1.21c-0.7-1.4-1.53-0.22-2.25-0.15c-0.41,0.04-1.3-0.14-1.19,0.73
		c0.1,0.76,0.82,0.62,1.37,0.62C-975.59-474.64-975.4-474.64-975.21-474.64z M-957.33-474.64c0.38,0,0.76-0.02,1.13,0.01
		c0.57,0.04,0.95-0.23,1-0.76c0.04-0.52-0.53-0.41-0.83-0.53c-0.47-0.2-0.99-0.3-1.49-0.41c-0.33-0.07-0.73-0.44-0.96,0.12
		c-0.19,0.46-0.69,0.89-0.45,1.41c0.17,0.36,0.68,0.12,1.04,0.17C-957.71-474.62-957.51-474.64-957.33-474.64z M-969.97-467.65
		c1.83-2.86,1.8-3.02-0.38-3.55C-970.23-470.1-970.12-469.03-969.97-467.65z M-962.05-471.27c-2.28,0.79-2.29,0.84-0.44,3.43
		C-962.14-469-962.2-470.12-962.05-471.27z M-945.68-455.9c-0.39,0.11-0.77,0.27-0.8,0.8c-0.03,0.59,0.29,0.91,0.84,0.93
		c0.47,0.01,0.82-0.27,0.87-0.77C-944.73-455.53-945.1-455.79-945.68-455.9z M-986.7-454.15c0.48-0.11,0.81-0.35,0.8-0.87
		c-0.01-0.58-0.38-0.88-0.92-0.84c-0.47,0.03-0.81,0.34-0.79,0.84C-987.61-454.45-987.22-454.2-986.7-454.15z M-977.87-446.2
		c-0.02-0.37-0.26-0.69-0.77-0.72c-0.56-0.03-0.94,0.26-0.93,0.82c0,0.55,0.37,0.89,0.92,0.87
		C-978.17-445.25-977.89-445.57-977.87-446.2z M-953.68-445.21c0.52-0.08,0.88-0.38,0.87-0.93c-0.02-0.48-0.33-0.78-0.84-0.78
		c-0.58,0-0.88,0.31-0.86,0.89C-954.49-445.53-954.18-445.28-953.68-445.21z"/>
	<path class="st0" d="M-965.33-453.27c0.09,0.62-0.07,0.98-0.81,0.96c-0.63-0.02-0.96-0.12-0.94-0.85c0.02-0.61,0.1-0.98,0.84-0.96
		C-965.63-454.1-965.2-454.02-965.33-453.27z"/>
	<path class="st0" d="M-953.68-461.29c0.12,0.76-0.23,0.93-0.87,0.96c-0.8,0.03-0.92-0.35-0.93-1.02c-0.01-0.75,0.4-0.82,0.98-0.82
		C-953.82-462.17-953.53-461.91-953.68-461.29z"/>
	<path class="st0" d="M-976.93-461.28c0.07,0.63-0.14,0.94-0.84,0.94c-0.73,0.01-0.98-0.24-0.98-0.97c0-0.71,0.32-0.86,0.94-0.87
		C-977.15-462.18-976.83-461.95-976.93-461.28z"/>
	<path class="st0" d="M-946.53-470.19c0.12,0.8-0.34,0.87-0.92,0.89c-0.69,0.03-0.87-0.28-0.88-0.92c-0.02-0.79,0.36-0.92,1.03-0.91
		C-946.55-471.13-946.44-470.74-946.53-470.19z"/>
	<path class="st0" d="M-984.09-470.23c0.11,0.75-0.25,0.94-0.89,0.94c-0.64,0-0.92-0.19-0.92-0.88c-0.01-0.75,0.28-0.96,0.99-0.96
		C-984.19-471.13-983.99-470.81-984.09-470.23z"/>
</g>
<text transform="matrix(0.9742 0 0 1 -1178.5353 -406.6865)" style="fill:#FF4B55; font-family:'AvantGardeITCbyBT-Medium'; font-size:12.992px;">Bags</text>
<g>
	<path class="st0" d="M-283.92,269.57c-32.96,0-65.92,0.05-98.88-0.02c-28.19-0.06-43.69-22.61-33.84-49.05
		c11.56-31.02,23.13-62.04,34.66-93.07c0.76-2.04,1.39-4.16,1.76-6.3c2.1-12.04,10.74-20.07,22.99-20.29
		c4.62-0.08,5.6-1.7,5.25-5.75c-0.35-4.03,0.85-7.72,4.27-10.17c2.44-1.75,1.92-4.12,1.95-6.43c0.11-10.78-0.53-21.58,2.62-32.16
		c8.33-28.01,35.9-47.12,64.37-44.43c30.8,2.91,54.55,26.31,57.02,56.46c0.54,6.55,0.39,13.17,0.4,19.76c0,2.67,0.22,4.81,2.89,6.48
		c4.15,2.6,5.12,6.96,4.86,11.56c-0.17,3.01,0.38,4.42,4.04,4.67c12.94,0.86,19.69,8.34,23.02,21.05
		c3.13,11.97,8.16,23.45,12.47,35.1c8.01,21.61,16.14,43.17,24.15,64.78c9.14,24.67-6.63,47.67-32.92,47.78
		C-216.54,269.67-250.23,269.57-283.92,269.57z M-379.06,144.94c-0.97,2.16-1.61,3.4-2.1,4.71c-9.28,24.85-18.6,49.69-27.79,74.58
		c-7.45,20.16,4.22,36.74,25.78,36.75c66.49,0.02,132.98,0.01,199.47-0.01c2.55,0,5.17-0.01,7.65-0.53
		c15.78-3.3,24.24-19.12,18.45-34.85c-9.55-25.93-19.31-51.77-29-77.64c-0.43-1.14-0.48-2.56-2.08-3.03
		c-0.2,0.71-0.39,1.41-0.58,2.11c-10.5,38.26-34.18,63.55-72.95,73.77c-3.54,0.93-3.41,2.93-3.59,5.53
		c-0.67,9.4-4.71,15.13-11.95,17.19c-12.16,3.47-23.02-4.44-23.5-17.29c-0.1-2.77-0.24-4.49-3.7-5.38
		C-344.46,210.69-368.48,185.15-379.06,144.94z M-283.14,109.25c-24.18,0-48.36-0.04-72.53,0.02c-10.15,0.03-15.96,5.9-16.15,16.01
		c-0.73,40.11,26.39,76.03,65.05,86.41c3.73,1,5.26,1.06,5.91-3.57c1.17-8.31,8.87-14.23,17.09-14.25
		c8.48-0.02,16.21,5.49,17.45,13.8c0.81,5.4,2.98,4.8,6.78,3.72c36.62-10.41,63.31-45.56,64.25-84.78
		c0.27-11.41-5.53-17.34-16.96-17.35C-235.88,109.26-259.51,109.27-283.14,109.25z M-283.22,100.67c7.87,0,15.74-0.1,23.61,0.05
		c2.82,0.05,4.01-0.83,3.8-3.73c-0.39-5.21,0.83-9.84,5.44-12.98c1.49-1.01,1.21-2.55,1.21-3.97c0-6.22,0.21-12.46-0.14-18.66
		c-0.98-17.81-16.3-31.97-34.28-31.93c-18.01,0.04-33.21,14.18-34.19,32.03c-0.33,6.02-0.11,12.07-0.13,18.11
		c0,1.45-0.14,2.97,1.46,3.84c5.36,2.93,7.01,7.71,6.48,13.43c-0.32,3.38,1.4,3.91,4.24,3.86
		C-298.23,100.58-290.72,100.67-283.22,100.67z M-229.81,69.43c-0.02,0-0.05,0-0.07,0c0-2.38,0.07-4.76-0.01-7.14
		c-0.77-22.66-15.66-42.5-37.1-49.47c-21.48-6.98-44.9,0.43-59.06,18.34c-11.46,14.5-11.95,31.4-10.99,48.57
		c0.24,4.23,4.37,1.8,6.7,2.27c2.05,0.42,4,0.14,3.92-2.95c-0.14-5.3-0.09-10.62,0-15.92c0.42-23.59,19.54-42.22,43.15-42.11
		c23.56,0.11,42.47,18.98,42.69,42.6c0.04,4.76,0.14,9.52-0.04,14.27c-0.11,2.93,0.6,4.22,3.88,4.26c6.93,0.08,6.93,0.28,6.94-6.7
		C-229.81,73.46-229.81,71.45-229.81,69.43z M-274.34,218.89c0.01,0,0.02,0,0.04,0c0-2.74,0.25-5.51-0.05-8.22
		c-0.57-5.01-4.46-8.28-9.34-8.21c-4.59,0.06-8.53,3.26-8.87,8.05c-0.4,5.64-0.39,11.34-0.03,16.99c0.31,4.83,4.13,8.06,8.73,8.23
		c4.79,0.17,8.87-3.12,9.47-8.07C-274.06,224.77-274.34,221.81-274.34,218.89z M-331.32,100.65c0,0.01,0,0.01,0,0.02
		c2.74,0,5.5-0.12,8.23,0.03c2.94,0.16,4.85-0.19,4.64-4.01c-0.2-3.46-0.32-6.23-4.88-6.09c-4.93,0.16-9.89,0.21-14.82-0.03
		c-4.59-0.22-5.39,2.18-5.57,6.09c-0.21,4.42,2.45,4.05,5.26,3.99C-336.08,100.61-333.7,100.65-331.32,100.65z M-234.88,100.67
		c2.56,0,5.13-0.01,7.69,0c2.8,0.02,5.44,0.42,5.21-4.05c-0.2-4.01-1.15-6.24-5.65-6.02c-4.75,0.23-9.53,0.2-14.28,0.01
		c-4.11-0.16-5.26,1.7-5.46,5.6c-0.22,4.43,2.05,4.7,5.34,4.49C-239.65,100.55-237.26,100.67-234.88,100.67z"/>
</g>
<text transform="matrix(0.9742 0 0 1 -889.2958 -406.0724)" style="fill:#FF4B55; font-family:'AvantGardeITCbyBT-Medium'; font-size:12.9169px;">Perfume</text>
<g>
	<path class="st0" d="M-865.88-430.92c-3.25,0-6.5-0.02-9.74,0.01c-0.78,0.01-1.42-0.2-2.05-0.65c-12.14-8.59-11.18-27.16,1.82-34.4
		c0.76-0.42,1.12-0.86,1.21-1.75c0.22-2.23,1.78-3.72,4.08-4.14c0.34-0.06,0.92,0.16,0.92-0.51c-0.01-0.76-0.62-0.5-1-0.52
		c-1.89-0.07-1.89-0.06-1.89-1.91c0-0.29-0.01-0.58,0-0.86c0.02-0.78-0.21-1.71,0.15-2.28c0.37-0.6,1.36-0.17,2.08-0.24
		c0.34-0.03,0.73-0.01,0.66-0.49c-0.14-0.94,0.42-0.95,1.1-0.94c1.85,0.03,3.7,0.03,5.55,0c0.69-0.01,1.03,0.11,1.03,0.93
		c0.01,2.12,0.05,2.12,2.22,1.82c4.29-0.61,7.92,1.51,9.48,5.52c0.43,1.11,0.88,2.21,1.35,3.3c0.26,0.61,0.66,1.14,1.19,1.55
		c0.57,0.44,0.95,0.53,1.45-0.24c1.08-1.66,3-2.21,4.76-1.54c1.75,0.67,2.72,2.35,2.52,4.34c-0.18,1.77-1.59,3.15-3.51,3.43
		c-2.02,0.29-3.98-1.13-4.4-3.26c-0.09-0.48-0.17-0.83-0.7-1c-1.21-0.39-1.99-1.3-2.53-2.39c-0.54-1.1-1.08-2.23-1.42-3.4
		c-1.01-3.41-3.52-4.65-6.78-4.84c-0.57-0.03-1.15,0.02-1.72,0.11c-1.96,0.29-1.91,0.31-1.95,2.26c-0.02,0.83,0.24,1.11,1.05,1.23
		c2.25,0.34,3.74,1.86,3.97,4.06c0.09,0.87,0.43,1.33,1.2,1.76c13.02,7.34,13.98,25.84,1.83,34.4c-0.63,0.45-1.26,0.67-2.05,0.66
		C-859.3-430.94-862.59-430.92-865.88-430.92z M-866.71-448.8l0.03,0.03c0.26-3.49,0.07-6.98,0.11-10.47
		c0.03-3.07,0.01-3.1-3.03-3.08c-1.77,0.01-3.25-0.58-4.23-2.06c-0.43-0.65-0.73-0.62-1.34-0.27c-11.84,6.67-12.86,23.58-1.91,31.67
		c0.56,0.41,1.12,0.59,1.82,0.59c6.29-0.02,12.59-0.02,18.88,0c0.74,0,1.34-0.19,1.92-0.64c4.12-3.19,6.55-7.35,7.4-12.5
		c1.21-7.38-2.96-15.82-9.56-19.22c-0.63-0.32-0.82-0.1-1.14,0.36c-0.98,1.43-2.37,2.1-4.1,2.07c-0.53-0.01-1.07,0-1.6,0
		c-1.62,0-1.61,0-1.61,1.56c0,3.74,0.01,7.48,0,11.23c0,1.45,0,1.45-1.28,0.87C-866.47-448.74-866.59-448.76-866.71-448.8z
		 M-865.81-463.85c1.4,0,2.8,0.03,4.19-0.01c1.79-0.05,3.11-1.37,3.2-3.11c0.09-1.73-1.12-3.29-2.91-3.36c-3-0.12-6-0.12-9,0.01
		c-1.77,0.08-3.04,1.72-2.93,3.37c0.12,1.71,1.5,3.04,3.25,3.09C-868.61-463.82-867.21-463.85-865.81-463.85z M-869.63-475.51
		c-0.12-0.46,0.33-1.2-0.71-1.19c-0.91,0.01-0.68,0.64-0.68,1.11c0.01,0.5-0.28,1.2,0.72,1.2
		C-869.34-474.38-869.74-475.06-869.63-475.51z"/>
	<path class="st0" d="M-892.6-476.46c0.1-1.91,0.83-3.41,2.37-4.45c0.46-0.31,0.74-0.65,0.88-1.23c0.4-1.59,1.95-2.76,3.41-2.74
		c0.51,0.01,0.93,0.13,0.97,0.7c0.04,0.51-0.36,0.71-0.8,0.77c-1.43,0.2-2.22,0.97-2.23,2.45c-0.01,0.54-0.37,0.76-0.8,0.97
		c-1.46,0.71-2.28,1.88-2.27,3.51c0.01,1.63,0.84,2.81,2.31,3.48c0.51,0.23,0.75,0.55,0.77,1.12c0.05,1.3,0.81,2.03,2.04,2.27
		c0.52,0.1,1.06,0.21,0.96,0.85c-0.11,0.67-0.67,0.72-1.26,0.62c-1.56-0.27-2.64-1.16-3.08-2.66c-0.18-0.61-0.44-0.98-0.95-1.32
		C-891.82-473.17-892.51-474.7-892.6-476.46z"/>
	<path class="st0" d="M-882.27-482.6c-0.13,0.45-0.38,0.75-0.86,0.68c-0.41-0.06-0.63-0.35-0.6-0.77c0.03-0.42,0.28-0.66,0.7-0.66
		C-882.54-483.35-882.34-483.02-882.27-482.6z"/>
	<path class="st0" d="M-874.29-477.93c-0.05,0.39-0.31,0.6-0.74,0.59c-0.43-0.02-0.69-0.27-0.69-0.69c0.01-0.49,0.33-0.74,0.8-0.69
		C-874.48-478.69-874.26-478.42-874.29-477.93z"/>
	<path class="st0" d="M-878.08-476.57c-0.05,0.48-0.28,0.77-0.69,0.79c-0.47,0.02-0.77-0.26-0.75-0.76
		c0.02-0.45,0.28-0.66,0.72-0.66C-878.34-477.21-878.17-476.91-878.08-476.57z"/>
	<path class="st0" d="M-879.63-481.13c-0.05,0.39-0.2,0.71-0.66,0.75c-0.45,0.04-0.71-0.22-0.75-0.63c-0.05-0.48,0.2-0.81,0.69-0.82
		C-879.91-481.85-879.71-481.54-879.63-481.13z"/>
	<path class="st0" d="M-876.98-479.52c-0.05,0.43-0.28,0.67-0.73,0.65c-0.45-0.02-0.68-0.29-0.67-0.71
		c0.01-0.49,0.32-0.77,0.79-0.72C-877.17-480.26-876.95-479.96-876.98-479.52z"/>
	<path class="st0" d="M-884.2-476.45c-0.07,0.41-0.34,0.68-0.74,0.66c-0.44-0.02-0.76-0.29-0.73-0.78c0.03-0.51,0.39-0.68,0.84-0.63
		C-884.4-477.16-884.22-476.86-884.2-476.45z"/>
	<path class="st0" d="M-881.19-476.51c0.02,0.46-0.26,0.71-0.66,0.73c-0.48,0.02-0.77-0.29-0.75-0.77c0.02-0.41,0.28-0.67,0.73-0.66
		C-881.41-477.19-881.2-476.94-881.19-476.51z"/>
	<path class="st0" d="M-874.99-475.69c0.45,0.03,0.7,0.26,0.71,0.68c0.01,0.48-0.24,0.77-0.72,0.78c-0.43,0.01-0.67-0.31-0.7-0.69
		C-875.74-475.39-875.44-475.65-874.99-475.69z"/>
	<path class="st0" d="M-879.62-471.89c-0.06,0.39-0.26,0.66-0.71,0.67c-0.45,0.01-0.69-0.24-0.71-0.66
		c-0.02-0.49,0.25-0.78,0.74-0.76C-879.88-472.61-879.65-472.33-879.62-471.89z"/>
	<path class="st0" d="M-883.07-469.69c-0.42-0.05-0.67-0.28-0.66-0.72c0.02-0.43,0.27-0.67,0.7-0.67c0.49,0,0.76,0.31,0.72,0.77
		C-882.33-469.88-882.64-469.68-883.07-469.69z"/>
	<path class="st0" d="M-876.97-473.43c-0.04,0.41-0.22,0.7-0.67,0.71c-0.45,0.01-0.69-0.26-0.7-0.68c-0.01-0.47,0.22-0.8,0.73-0.78
		C-877.18-474.16-876.99-473.86-876.97-473.43z"/>
	<path class="st0" d="M-866.71-448.8c0.03,3.25,0.05,6.49,0.08,9.74c0.01,0.55-0.19,1.15,0.79,1.15c0.94,0.01,0.83-0.54,0.83-1.12
		c0-2.67,0.01-5.35-0.01-8.02c0-0.56-0.01-0.98,0.78-0.71c4.71,1.59,9.22,1,13.57-1.28c0.1-0.05,0.23-0.05,0.35-0.07
		c0.8,4.94-2.6,11.83-6.96,14.19c-0.4,0.21-0.78,0.21-1.19,0.21c-4.98,0-9.95,0-14.93,0.01c-0.46,0-0.87-0.05-1.27-0.33
		c-4.26-3.03-6.58-7.11-6.87-12.35c-0.05-0.89,0.27-1.35,1.02-1.72c4.68-2.32,9.27-2,13.83,0.34
		C-866.68-448.77-866.71-448.8-866.71-448.8z"/>
	<path class="st0" d="M-857.85-461.46c1.84,0.11,6.33,4.64,6.53,6.22c0.07,0.59-0.41,0.51-0.68,0.69c-0.44,0.28-0.65-0.01-0.83-0.38
		c-0.77-1.52-1.78-2.84-3.17-3.85c-0.59-0.43-1.23-0.8-1.86-1.17c-0.32-0.19-0.55-0.37-0.29-0.76
		C-857.97-460.98-858.02-461.46-857.85-461.46z"/>
	<path class="st0" d="M-850.4-452.81c-0.06,0.45-0.31,0.76-0.78,0.75c-0.4-0.01-0.68-0.27-0.69-0.7c-0.01-0.48,0.24-0.75,0.74-0.74
		C-850.69-453.47-850.47-453.22-850.4-452.81z"/>
</g>
<text transform="matrix(0.9355 0 0 1 -882.4375 -524.077)" style="fill:#FF4B55; font-family:'AvantGardeITCbyBT-Medium'; font-size:12.7639px;">House</text>
<g>
	<path class="st0" d="M265.12,267.81c-0.58,0.57-0.87,1.37-1.54,1.88c-0.5,0.38-1,0.62-1.66,0.62c-79.79-0.01-159.57-0.01-239.36,0
		c-1.14,0-1.79-0.67-2.39-1.43c-1.29-1.61-1.84-3.46-1.82-5.55c0.06-4.94,0.02-9.87,0.02-14.81c0-0.95,0.01-0.95,0.94-0.96
		c0.05,0,0.09,0,0.14,0c81.89,0,163.78,0,245.68,0C265.12,254.32,265.12,261.07,265.12,267.81z"/>
	<path class="st0" d="M265.12,120.55c-0.67,1.87-2.04,3.13-3.71,4.08c-1.56,0.89-4.52,1.1-6.54-0.27c-2.76-1.87-5.16-4.19-7.76-6.27
		c-1.21-0.97-2.43-1.96-3.61-2.98c-2.77-2.4-5.62-4.7-8.42-7.05c-1.23-1.03-2.49-2.02-3.71-3.07c-2.74-2.36-5.55-4.63-8.32-6.96
		c-1.24-1.05-2.53-2.05-3.76-3.11c-2.72-2.35-5.51-4.61-8.27-6.91c-2.62-2.19-5.24-4.37-7.86-6.56c-2.74-2.29-5.49-4.57-8.23-6.86
		c-2.64-2.2-5.28-4.4-7.91-6.6c-2.7-2.26-5.43-4.5-8.11-6.78c-1.24-1.05-2.53-2.05-3.76-3.11c-2.72-2.35-5.52-4.61-8.27-6.91
		c-2.65-2.22-5.31-4.43-7.97-6.65c-2.71-2.26-5.42-4.51-8.13-6.77c-2.75-2.31-5.51-4.62-8.28-6.91c-0.2-0.16-0.28-0.19-0.49-0.01
		c-2.45,2.04-4.95,4.02-7.38,6.09c-2.67,2.28-5.38,4.5-8.07,6.74c-2.74,2.29-5.49,4.57-8.23,6.86c-2.58,2.16-5.17,4.31-7.75,6.47
		c-2.74,2.29-5.49,4.57-8.23,6.86c-2.64,2.2-5.28,4.4-7.92,6.6c-2.71,2.26-5.42,4.52-8.13,6.77c-2.66,2.22-5.31,4.43-7.97,6.65
		c-2.74,2.29-5.49,4.57-8.23,6.86c-2.6,2.17-5.21,4.34-7.81,6.52c-2.72,2.28-5.45,4.54-8.18,6.81c-2.64,2.2-5.28,4.4-7.92,6.6
		c-2.73,2.27-5.46,4.54-8.18,6.82c-2.32,1.94-4.64,3.9-6.97,5.83c-1.33,1.1-2.77,1.89-4.56,2.01c-3.03,0.2-6.16-2.08-7.18-5
		c-1.07-3.08-0.24-6.4,2.22-8.58c1.34-1.19,2.76-2.27,4.12-3.43c2.75-2.35,5.56-4.63,8.32-6.96c1.23-1.04,2.49-2.02,3.71-3.06
		c2.74-2.36,5.55-4.64,8.33-6.95c2.64-2.2,5.28-4.4,7.92-6.6c2.72-2.28,5.45-4.55,8.18-6.82c2.47-2.05,4.92-4.12,7.39-6.17
		c2.92-2.43,5.84-4.85,8.76-7.29c2.6-2.17,5.21-4.34,7.81-6.52c2.72-2.28,5.45-4.54,8.18-6.82c2.64-2.2,5.28-4.4,7.92-6.6
		c2.73-2.27,5.45-4.54,8.18-6.82c2.48-2.07,4.96-4.15,7.44-6.22c2.9-2.42,5.81-4.82,8.7-7.24c2.64-2.2,5.29-4.39,7.91-6.6
		c1.05-0.89,2.12-1.76,3.17-2.65c1.97-1.64,4.18-2.26,6.7-1.55c0.63,0.18,1.15,0.53,1.67,0.87c1.36,0.9,2.64,1.9,3.82,3.03
		c0.47,0.45,1.01,0.83,1.52,1.25c2.03,1.67,4.09,3.28,6.06,5.02c1.22,1.08,2.53,2.05,3.76,3.11c2.72,2.35,5.52,4.61,8.27,6.91
		c2.66,2.22,5.32,4.43,7.97,6.64c2.71,2.26,5.42,4.51,8.13,6.77c2.62,2.19,5.25,4.37,7.86,6.56c2.77,2.32,5.56,4.62,8.33,6.94
		c2.52,2.1,5.03,4.2,7.54,6.3c2.81,2.34,5.63,4.68,8.44,7.03c2.59,2.16,5.17,4.32,7.76,6.47c2.78,2.32,5.56,4.63,8.33,6.95
		c1.23,1.03,2.49,2.02,3.71,3.07c2.76,2.37,5.59,4.66,8.37,7c1.28,1.08,2.6,2.1,3.87,3.2c2.7,2.34,5.48,4.57,8.21,6.88
		c1.21,1.02,2.47,1.98,3.65,3.03c1.39,1.22,2.88,2.37,3.57,4.18C265.12,116.65,265.12,118.6,265.12,120.55z"/>
	<path class="st0" d="M265.12,232.63c-1.7,0.01-3.39,0.04-5.09,0.04c-2.49,0.01-4.98,0-7.47,0c-1.05,0-1.06,0-1.06-1.03
		c0-4.39,0-8.78,0-13.18c0-0.91,0-0.91-0.9-0.91c-4.19,0-8.38,0.01-12.57-0.01c-0.68,0-0.9,0.19-0.9,0.88
		c0.03,4.41,0.01,8.83,0.01,13.25c0,1,0,1-1.02,1c-4.26,0-8.51,0-12.77,0c-0.89,0-0.9-0.01-0.9-0.92c0-4.42,0-8.83,0-13.25
		c0-0.95,0-0.95-0.94-0.95c-4.17,0-8.33,0-12.5,0c-0.91,0-0.92,0-0.92,0.9c0,4.44,0,8.88,0,13.31c0,0.9-0.01,0.91-0.91,0.91
		c-4.28,0-8.56-0.01-12.84,0.01c-0.69,0-0.89-0.2-0.88-0.89c0.02-7.34,0.03-14.67,0.01-22.01c-0.01-3.82,2.98-7.49,7.51-7.48
		c19.18,0.02,38.35,0.01,57.53,0.01c2.08,0,3.93,0.62,5.4,2.13c0.45,0.46,0.8,1.03,1.2,1.56
		C265.12,214.88,265.12,223.75,265.12,232.63z"/>
	<path class="st1" d="M145.59,149.51c-13.58,0-27.17-0.03-40.75,0.02c-4.1,0.01-7.43,1.91-10.08,4.89
		c-2.35,2.64-3.56,5.85-3.74,9.41c-0.02,0.45,0.06,0.9,0.06,1.35c0,7.49,0,14.99,0,22.48c0,0.98-0.11,1.08-1.01,0.69
		c-1.91-0.83-3.93-1.05-5.97-1.05c-11.77-0.03-23.55-0.02-35.32-0.02c-0.23,0-0.45-0.02-0.68,0c-0.55,0.05-0.81-0.16-0.77-0.73
		c0.02-0.18,0-0.36,0-0.54c0-18.63,0.01-37.27-0.02-55.9c0-0.81,0.26-1.31,0.87-1.83c2.69-2.27,5.42-4.5,8.13-6.77
		c2.63-2.2,5.28-4.4,7.91-6.6c2.71-2.26,5.42-4.51,8.12-6.77c2.65-2.22,5.32-4.43,7.96-6.65c2.73-2.3,5.49-4.57,8.23-6.86
		c2.62-2.19,5.24-4.37,7.86-6.56c2.67-2.23,5.35-4.46,8.02-6.69c2.69-2.25,5.39-4.49,8.07-6.73c2.71-2.26,5.42-4.51,8.12-6.77
		c2.62-2.19,5.25-4.37,7.86-6.56c2.77-2.32,5.58-4.6,8.32-6.95c1.63-1.39,3.39-2.64,4.91-4.16c0.36-0.36,0.67-0.34,1.05-0.01
		c2.76,2.4,5.62,4.7,8.42,7.06c1.19,1.01,2.42,1.96,3.61,2.98c2.78,2.39,5.61,4.7,8.42,7.06c1.19,1,2.42,1.96,3.6,2.98
		c2.77,2.39,5.62,4.7,8.43,7.04c2.57,2.14,5.14,4.29,7.7,6.43c2.79,2.33,5.6,4.65,8.38,7c1.23,1.04,2.49,2.02,3.71,3.07
		c2.76,2.38,5.59,4.66,8.38,6.99c2.55,2.13,5.1,4.26,7.65,6.39c2.76,2.3,5.52,4.6,8.28,6.9c2.65,2.22,5.31,4.43,7.97,6.65
		c2.71,2.26,5.39,4.55,8.13,6.77c0.47,0.38,0.87,0.86,1.36,1.22c0.24,0.17,0.33,0.42,0.33,0.71c0,0.23,0,0.45,0,0.68
		c0,18.63,0,37.27,0,55.9c0,0.23-0.01,0.45,0,0.68c0.01,0.43-0.2,0.62-0.62,0.59c-0.23-0.01-0.45,0-0.68,0
		c-11.48,0-22.96,0.01-34.44-0.01c-2,0-3.97,0.21-5.92,0.66c-0.5,0.12-0.89,0.44-1.38,0.55c-0.42,0.09-0.67,0.04-0.63-0.46
		c0.02-0.2,0-0.41,0-0.61c0-9.83-0.01-19.65,0.01-29.48c0.01-2.58-0.63-4.88-2.56-6.69c-1.13-1.06-2.52-1.58-4.05-1.72
		c-0.45-0.04-0.9-0.02-1.36-0.02c-13.31,0-26.63,0-39.94,0C145.59,149.51,145.59,149.51,145.59,149.51z"/>
	<path class="st0" d="M105.44,198.56c0-11.05,0-22.09,0-33.14c0-1.01,0-1.02,1.01-1.02c9.21,0,18.43,0,27.64,0c0.96,0,1,0.03,1,0.99
		c0,22.12,0,44.23,0,66.35c0,0.92-0.01,0.93-0.96,0.93c-9.24,0-18.47,0-27.71,0c-0.98,0-0.98,0-0.98-0.97
		C105.44,220.66,105.44,209.61,105.44,198.56z"/>
	<path class="st0" d="M149.46,198.45c0-11,0-22,0-33c0-1.04,0-1.04,1.06-1.04c9.17,0,18.33,0,27.5,0c1.09,0,1.09,0,1.09,1.1
		c0,22.05,0,44.1,0,66.14c0,1.02,0,1.02-1.01,1.02c-9.21,0-18.43,0-27.64,0c-1,0-1,0-1-1.01
		C149.46,220.59,149.46,209.52,149.46,198.45z"/>
	<path class="st0" d="M54.73,202.31c9.58,0,19.15,0,28.73,0c2.21,0,4.15,0.72,5.62,2.41c1.43,1.65,2,3.62,2,5.77
		c0,7.11,0,14.22,0.01,21.33c0,0.64-0.19,0.86-0.86,0.86c-4.32-0.03-8.65-0.03-12.97,0c-0.69,0-0.89-0.22-0.88-0.89
		c0.02-4.41,0.01-8.83,0.01-13.24c0-0.99,0-1-0.96-1c-4.14,0-8.29,0-12.43,0c-0.96,0-0.96,0-0.96,0.99c0,4.39,0,8.78,0,13.18
		c0,0.95-0.01,0.95-0.94,0.95c-4.28,0-8.56,0-12.84,0c-0.9,0-0.92-0.02-0.92-0.9c0-4.41,0-8.83,0-13.24c0-0.96-0.01-0.97-0.93-0.97
		c-4.19,0-8.38,0.01-12.57-0.01c-0.69,0-0.88,0.21-0.88,0.89c0.03,4.44,0.01,8.87,0.01,13.31c0,0.93,0,0.93-0.95,0.93
		c-4.26,0-8.51,0-12.77,0c-0.89,0-0.89,0-0.89-0.92c0-7.31,0-14.63,0-21.94c0-3.89,3.01-7.51,7.49-7.51
		C35.48,202.32,45.1,202.31,54.73,202.31z"/>
</g>
<text transform="matrix(0.9742 0 0 1 -987.3718 -522.7133)" style="fill:#FF4B55; font-family:'AvantGardeITCbyBT-Medium'; font-size:12.7639px;">Clothes</text>
<g>
	<path class="st2" d="M653.13-355.84c4.84-5.74,9.39-10.46,15.42-13.55c1.1-0.56,2.33-0.87,3.4-1.46
		c3.87-2.16,10.79,1.79,12.01-2.48c2.12-7.43,3.79-15.4,2.12-23.38c-0.2-0.93-0.73-1.8-0.89-2.73c-0.46-2.7-2.31-6.05,1.66-7.44
		c3.76-1.31,6.92,0.34,8.49,3.93c3.46,7.91,7.13,15.69,7.89,24.5c1.73,20.01-0.25,39.11-12.33,56.35
		c-13.72,19.58-15.98,40.64-8.57,63.02c10.01,30.23,10.46,61.69,12.69,92.93c0.44,6.15-3.9,7.05-8.25,8.14
		c-18.51,4.64-37.24,5.78-56.26,3.45c-19.38-2.37-38.12-6.57-55.81-14.87c-6.3-2.95-8.72-6.05-6.76-13.29
		c8.57-31.68,16.02-63.66,32.78-92.68c12.11-20.96,8.86-43.03,4.53-65.1c-5.1-25.97,1.2-49.21,18.03-69.95
		c2.59-3.19,5.79-4.89,9.68-2.55c4.29,2.58,1.24,5.58-0.39,7.94c-5.14,7.45-3.84,16.14-5.47,24.26c-0.35,1.76,0.65,2.77,2.35,2.99
		C642.46-376.13,647.49-366.34,653.13-355.84z"/>
	<path class="st2" d="M490-281.04c-2.8,6.39-6.34,9.66-9.47,13.27c-3.41,3.93-6.23,3.56-9.91,0.28
		c-12.21-10.91-24.5-21.76-37.03-32.33c-4.53-3.82-4.72-7.1-0.15-10.44c15.4-11.26,28.79-24.63,42.68-37.46
		c7.92-7.31,15.68-14.8,26.03-18.9c3.53-1.4,3.16-3.72,2.92-6.4c-0.35-3.88,1.34-4.94,5.39-4.23c23.57,4.14,46.55,3.18,68.16-8.13
		c0.65-0.34,1.82-0.91,2.01-0.71c4.26,4.4,12.47,9.5,11.87,13.27c-2.31,14.49,0.71,28.22,3.45,41.93
		c4.6,23.03,1.98,44.73-9.87,65.24c-16.03,27.74-22.95,58.4-30.88,88.72c-1.25,4.77-3.05,6.67-8.26,6.99
		c-9.67,0.6-19.26,2.22-28.92,3.16c-10.01,0.98-13.09-1.6-14.27-10.99c-4.01-32.04-8.08-64.07-12.16-96.1
		C491.38-275.5,490.89-277.1,490-281.04z M441.97-308.87c-1.15,1.18-2.39,2.06-3.07,3.24c-1.26,2.18,1.17,2.86,2.27,3.83
		c10.04,8.9,20.17,17.72,30.3,26.53c1.73,1.5,3.21,3.92,5.92,0.82c2.32-2.66,0.21-3.8-1.38-5.19
		c-10.27-9.02-20.56-18.01-30.87-26.99C444.24-307.41,443.18-308.02,441.97-308.87z"/>
</g>
<text transform="matrix(0.9355 0 0 1 -1093.6056 -524.077)" style="fill:#FF4B55; font-family:'AvantGardeITCbyBT-Medium'; font-size:12.7639px;">Electronics</text>
<g>
	<path class="st0" d="M283.46-198.54c-0.53,1.86-1.09,3.71-1.76,5.52c-0.47,1.28-1.01,2.54-1.72,3.71c-1.7,2.77-3.66,5.35-6.13,7.46
		c-6.08,5.23-13.13,7.96-21.2,7.96c-72.37-0.01-144.74-0.01-217.11,0.01c-4.77,0-9.37-0.74-13.73-2.72
		c-2.53-1.15-4.92-2.54-7.08-4.32c-2.42-2-4.49-4.27-6.25-6.88c-1.38-2.04-2.29-4.26-3.2-6.52c-1.2-2.98-1.52-6.07-1.57-9.22
		c-0.03-1.71,0.01-3.42-0.02-5.13c-0.01-0.55,0.12-0.84,0.72-0.75c0.12,0.02,0.24,0,0.37,0c35.56,0,71.13,0,106.69,0
		c1.25,0,1.1-0.13,1.1,1.08c0.01,4.32,0.01,8.64-0.01,12.96c0,0.59,0.13,0.8,0.76,0.79c20.28-0.02,40.57-0.02,60.85,0
		c0.59,0,0.74-0.18,0.74-0.75c-0.02-4.42,0-8.84-0.03-13.26c0-0.67,0.19-0.85,0.86-0.85c35.68,0.02,71.37,0.01,107.05,0.02
		c0.22,0,0.44,0.02,0.66,0.04C283.46-205.77,283.46-202.15,283.46-198.54z"/>
	<path class="st0" d="M143.75-224.32c-39.08,0-78.15,0-117.23,0c-1.18,0-1.05,0.16-1.05-1.06c0-50.7,0-101.4,0-152.1
		c0-1.24-0.13-1.05,1.04-1.05c78.15,0,156.3,0,234.46,0c1.05,0,1.05,0,1.05,1.05c0,50.7,0,101.4,0,152.1c0,1.23,0.12,1.06-1.04,1.06
		C221.9-224.32,182.83-224.32,143.75-224.32z M143.75-357.8c-31.83,0-63.66,0-95.49,0c-1.21,0-1.04-0.13-1.04,1.06
		c0,33.93,0,67.86,0,101.8c0,1.15-0.14,1.03,0.99,1.03c63.68,0,127.36,0,191.04,0c1.14,0,1,0.12,1-1.03c0-33.91,0-67.82,0-101.72
		c0-1.3,0.19-1.14-1.11-1.14C207.36-357.8,175.55-357.8,143.75-357.8z"/>
</g>
<text transform="matrix(1.0231 0 0 1 -1185.1082 -522.0404)" style="fill:#FF4B55; font-family:'AvantGardeITCbyBT-Medium'; font-size:12.8117px;">Beauty</text>
<g>
	<path class="st0" d="M-325.02-325.75c23.47-23.85,51.24-33.99,83.82-28.5c25.3,4.26,45.4,17.48,59.84,38.74
		c30.6,45.03,15.4,107.35-34.46,133.04c1.09,0.71,2.19,0.41,3.18,0.42c16.61,0.02,33.21,0.01,49.82,0.02c4.2,0,4.77,0.61,4.61,4.78
		c-0.57,14.47-11.27,25.59-25.65,26.59c-2.54,0.18-5.09,0.17-7.64,0.17c-49.82,0.01-99.64,0.01-149.46,0.01
		c-20.98,0-41.96,0-62.93,0c-4.45,0-4.83-0.39-4.83-4.92c0-27.92,0.02-55.83-0.03-83.75c-0.01-2.99,0.25-5.41,4.13-5.09
		c1.41,0.12,1.33-0.88,1.33-1.82c0-3.36,0.05-6.73-0.02-10.09c-0.05-2.37,0.81-3.56,3.36-3.61c2.28-0.05,5.32,1.16,6.65-0.62
		c1.09-1.46,0.35-4.31,0.35-6.55c0.01-25.47-0.03-50.94,0.07-76.41c0.01-2.45-0.46-3.57-3.12-3.23c-1.8,0.23-3.72-0.08-3.7-2.49
		c0.03-2.5,2.06-2.58,3.79-2.31c3.31,0.52,2.84-1.6,3.03-3.66c0.23-2.54-0.8-3.18-3.11-2.99c-2.02,0.17-4.07,0.03-6.11,0.03
		c-1.6,0-2.94-0.5-2.99-2.31c-0.06-1.98,1.35-2.56,3.07-2.57c2.34-0.02,4.69-0.13,7.03,0.02c2.61,0.17,2.11-1.62,2.03-3.04
		c-0.08-1.39,0.95-3.52-1.98-3.39c-2.34,0.11-4.69,0.05-7.03,0c-1.67-0.04-3.16-0.55-3.11-2.55c0.05-2.04,1.58-2.34,3.25-2.32
		c1.94,0.02,3.9-0.23,5.8,0.05c3.13,0.45,3.1-1.29,3.17-3.57c0.07-2.34-0.5-3.35-3.01-3.06c-1.91,0.22-3.87,0.02-5.8,0.05
		c-1.8,0.03-3.45-0.33-3.39-2.52c0.06-2.19,1.77-2.41,3.53-2.39c2.24,0.03,4.49-0.11,6.72,0.03c2.15,0.13,2.11-1.27,1.83-2.55
		c-0.29-1.39,1.41-3.82-1.71-3.93c-2.44-0.09-4.89,0-7.33-0.04c-1.68-0.03-3.14-0.51-3.06-2.55c0.07-1.84,1.45-2.29,3.01-2.31
		c2.44-0.03,4.89,0.02,7.34-0.04c3.13-0.08,1.48-2.5,1.76-3.89c0.26-1.3,0.27-2.8-1.86-2.51c-0.1,0.01-0.2,0-0.31,0
		c-1.97-0.09-4.59,0.47-4.52-2.6c0.06-2.91,2.63-2.35,4.44-2.24c2.02,0.12,2.48-0.75,2.31-2.51c-0.1-1.11-0.04-2.24,0.01-3.36
		c0.07-1.45,0.91-2.27,2.32-2.32c1.43-0.05,2.24,0.84,2.49,2.2c0.09,0.49,0.1,1.02,0.04,1.52c-0.34,3,0.02,5.24,4,4.46
		c1.47-0.29,2.65,0.55,2.76,2.15c0.13,1.78-1.03,2.52-2.66,2.67c-0.3,0.03-0.62-0.03-0.91,0.03c-1.03,0.21-2.66-0.66-3,0.63
		c-0.42,1.62-0.23,3.45-0.02,5.15c0.1,0.83,1.17,0.61,1.85,0.62c2.34,0.03,4.69,0.02,7.03,0.03c1.59,0.01,2.97,0.54,3.05,2.29
		c0.09,1.96-1.34,2.55-3.06,2.57c-2.04,0.02-4.08-0.06-6.11,0.05c-0.99,0.06-2.57-0.68-2.81,0.92c-0.25,1.67-0.12,3.45,0.17,5.12
		c0.12,0.68,1.26,0.39,1.94,0.39c2.34,0.03,4.69,0.02,7.03,0.02c1.67,0,2.87,0.76,2.85,2.47c-0.02,1.71-1.24,2.43-2.9,2.42
		c-2.34-0.01-4.69,0.06-7.03-0.02c-1.45-0.05-2.17,0.22-2.22,1.96c-0.14,4.61-0.23,4.61,4.49,4.61c1.63,0,3.26,0.03,4.89,0.01
		c1.54-0.01,2.68,0.67,2.77,2.22c0.11,1.75-1.13,2.56-2.74,2.62c-2.44,0.09-4.9,0.17-7.33,0.02c-2.64-0.16-2.09,1.65-2,3.04
		c0.1,1.35-1.02,3.53,1.94,3.39c2.34-0.11,4.69-0.02,7.03-0.01c1.75,0,3.14,0.68,3.09,2.58c-0.05,1.72-1.37,2.33-3,2.31
		c-2.34-0.03-4.69,0.08-7.03-0.01c-3.16-0.13-1.88,2.22-2.03,3.64c-0.15,1.42-0.55,3.3,2.05,2.95c0.5-0.07,1.02,0.01,1.53-0.01
		c1.73-0.05,3.16,0.42,3.13,2.44c-0.03,1.99-1.54,2.63-3.19,2.41c-3.02-0.42-3.64,0.76-3.63,3.66c0.12,26.69,0.11,53.39,0.01,80.08
		c-0.01,2.54,0.67,3.26,3.21,3.19c7.29-0.19,7.29-0.83,7.19,7.33c-0.01,1.22,0.02,2.45-0.01,3.67c-0.06,2.4-0.57,4.92,3.36,4.67
		c1.52-0.1,1.95,1.55,1.95,2.98c0.01,2.95,0.17,5.92-0.04,8.86c-0.17,2.5,0.79,3.11,3.14,3.03c2.11-0.07,3.37-0.18,3.25-2.9
		c-0.23-5.08-0.02-10.19-0.07-15.28c-0.04-3.34,0.93-6.26,3.5-8.44c1.09-0.93,1.26-1.98,1.25-3.24c-0.03-2.95-0.06-5.91,0.01-8.86
		c0.05-2.24-0.69-4.75,2.22-6.09c0.84-0.38,0.37-1.69,0.38-2.57c0.03-10.09,0.1-20.17-0.02-30.26c-0.04-3.73,1.19-6.66,3.83-9.25
		c6.83-6.71,13.58-13.51,20.33-20.3c1.8-1.81,3.66-3.37,6.43-2.27c2.88,1.15,3.29,3.58,3.2,6.29
		C-325.08-330.29-325.02-328.29-325.02-325.75z M-317.7-240.34c0.01,0,0.01,0,0.02,0c0,2.34,0.09,4.69-0.03,7.03
		c-0.1,1.82,0.36,3.37,1.33,4.88c13.71,21.45,33.33,32.98,58.72,33.34c42.86,0.61,75.67-37.84,68.85-80.19
		c-5.23-32.44-32.45-56.62-65.98-58.21c-30.71-1.46-60.53,20.02-68.92,50.38c-0.68,2.44-1.47,4.89-1.29,7.49
		c0.05,0.66-0.32,1.56,0.52,1.91c2.23,0.93,1.96,2.82,1.96,4.66c-0.01,3.16,0.07,6.32-0.03,9.48c-0.06,1.73,0.29,3.03,1.7,4.24
		c2.19,1.87,3.12,4.48,3.16,7.36C-317.67-245.44-317.7-242.89-317.7-240.34z M-317.69-221.25c0,5.75,0.15,10.71-0.06,15.66
		c-0.1,2.4,0.77,3.96,2.49,5.47c6.77,5.97,14.2,10.87,22.38,14.7c5.06,2.37,10.19,3.58,15.87,3.47c14.77-0.27,29.54-0.11,44.32-0.07
		c1.87,0,3.6-0.33,5.35-0.96c39.69-14.21,63.59-55.63,55.09-97.67c-7.1-35.1-28.74-58.33-63.35-67.22
		c-34.62-8.89-64.26,1.54-88.04,28.3c-1.01,1.13-1.42,2.32-1.41,3.85c0.08,6.21,0.02,12.43,0.06,18.64c0,0.57-0.46,1.39,0.47,1.78
		c15.17-31.98,48.75-47.94,80.99-41.75c33.05,6.34,56.54,32.3,60.23,65.98c3.4,31.01-14.92,61.99-44.28,74.79
		C-258.07-182.98-295.34-191.32-317.69-221.25z M-240.02-177.15c-24.85,0-49.7,0.04-74.55-0.06c-2.53-0.01-3.23,0.61-3.2,3.17
		c0.07,5.18,0.87,10.48-0.41,15.51c-0.8,3.13,0.04,3.19,2.58,3.19c42.37-0.06,84.73-0.04,127.1-0.05c1.83,0,3.67-0.07,5.49-0.24
		c9.75-0.94,17.74-8.58,19.56-18.25c0.55-2.93-0.28-3.33-2.94-3.32C-190.93-177.11-215.47-177.15-240.02-177.15z M-386.17-181.88
		c2.96-2.11,5.68-4.05,8.4-6c1.44-1.03,3.03-2.28,4.49-0.33c1.61,2.15-0.25,3.3-1.74,4.38c-3.22,2.33-6.43,4.66-9.71,6.9
		c-1.31,0.9-1.87,1.94-1.84,3.55c0.08,5.19,0.1,10.39,0,15.58c-0.04,1.89,0.64,2.44,2.48,2.43c11.31-0.06,22.61-0.07,33.92,0
		c1.93,0.01,2.46-0.73,2.39-2.52c-0.11-2.85-0.03-5.7-0.03-8.55c0-16.81,0.01-33.61,0-50.42c0-5.71-1.75-7.43-7.51-7.43
		c-8.25-0.01-16.5-0.03-24.75,0.01c-4.37,0.02-6.37,1.94-6.42,6.33c-0.08,7.13-0.03,14.26-0.01,21.39c0,0.48,0.12,0.95,0.24,1.9
		c3.18-2.26,6.06-4.28,8.91-6.34c1.47-1.06,2.97-1.71,4.22,0.1c1.15,1.67,0.07,2.85-1.27,3.81c-2.73,1.96-5.3,4.21-8.23,5.79
		C-386.5-189.22-387.2-186.24-386.17-181.88z M-322.58-204.18c0-14.25,0.02-28.5-0.01-42.75c-0.01-4.52-2.03-6.57-6.5-6.59
		c-8.55-0.03-17.1-0.03-25.65,0c-4.49,0.02-6.44,2-6.47,6.58c-0.04,4.68,0.21,9.38-0.09,14.04c-0.2,3.17,0.83,4.04,3.88,3.8
		c3-0.23,6.1-0.44,8.94,1.17c4.21,2.4,5.56,6.19,5.56,10.78c-0.02,19.54,0.04,39.09-0.06,58.63c-0.01,2.58,0.75,3.36,3.26,3.2
		c3.14-0.21,6.31-0.04,9.46-0.05c5.99-0.02,7.67-1.68,7.68-7.58C-322.58-176.7-322.58-190.44-322.58-204.18z M-403.82-197.47
		c0,13.03,0.07,26.06-0.06,39.1c-0.02,2.47,0.73,3.25,3.09,3.03c1.82-0.17,3.68-0.22,5.49,0c3.01,0.36,3.97-0.57,3.95-3.78
		c-0.17-19.03-0.09-38.06-0.06-57.09c0-1.62,0.05-3.27,0.35-4.86c0.79-4.15,4.41-7.44,8.59-8c5.18-0.69,5.18-0.69,5.18-6.11
		c0-0.51-0.05-1.02,0.01-1.53c0.22-1.92-0.45-2.7-2.53-2.66c-7.13,0.11-14.25,0.13-21.38,0c-2.22-0.04-2.69,0.77-2.68,2.82
		C-403.78-223.54-403.82-210.5-403.82-197.47z M-330.05-333.96c-7.77,7.79-15.03,15.08-22.31,22.35c-1.27,1.26-1.5,2.79-1.49,4.48
		c0.02,10.29,0.05,20.58-0.03,30.87c-0.02,1.92,0.42,2.66,2.51,2.62c6.31-0.13,12.64-0.12,18.95,0c1.98,0.04,2.57-0.52,2.57-2.54
		c-0.08-18.55-0.04-37.09-0.05-55.64C-329.92-332.29-329.98-332.77-330.05-333.96z M-342.15-258.43c2.34,0,4.68,0,7.02,0
		c7.94,0,7.88,0,7.75-8c-0.03-1.86-0.52-2.44-2.41-2.41c-6.31,0.11-12.62,0.04-18.92,0.04c-8.32,0-8.27,0-7.81,8.35
		c0.09,1.61,0.62,2.08,2.17,2.05C-350.29-258.48-346.22-258.43-342.15-258.43z M-390.75-254.83c-2.13,0.27-5.52-1.15-7.14,0.53
		c-1.6,1.66-0.25,5.03-0.53,7.63c-0.23,2.14,0.75,2.53,2.62,2.47c3.45-0.12,6.91-0.17,10.36,0.01c2.3,0.12,2.92-0.62,2.91-2.9
		C-382.59-254.83-382.5-254.83-390.75-254.83z M-317.68-195.74c0,4.49,0.02,8.23-0.01,11.97c-0.01,1.05,0.15,1.74,1.47,1.73
		c5.94-0.04,11.89-0.02,17.83-0.02C-305.05-186.06-311.33-190.29-317.68-195.74z"/>
	<path class="st0" d="M-232.09-294.19c-0.02,1.02-0.68,1.67-1.33,2.32c-15.48,15.48-30.97,30.96-46.46,46.44
		c-1.28,1.28-2.7,2.12-4.19,0.52c-1.36-1.46-0.5-2.79,0.69-3.97c15.49-15.48,30.98-30.96,46.46-46.44c0.98-0.98,2.01-1.78,3.5-1.08
		C-232.51-295.96-232.09-295.19-232.09-294.19z"/>
	<path class="st0" d="M-215.14-290.34c-0.15,1.29-0.85,2.01-1.57,2.74c-3.31,3.29-6.61,6.58-9.91,9.88
		c-1.23,1.23-2.58,2.3-4.16,0.72c-1.55-1.56-0.57-2.92,0.68-4.16c3.46-3.43,6.89-6.88,10.34-10.31c0.9-0.9,1.89-1.57,3.24-0.88
		C-215.61-291.89-215.3-291.07-215.14-290.34z"/>
	<path class="st0" d="M-297.8-273.84c-1.15-0.03-1.91-0.46-2.4-1.32c-0.51-0.89-0.47-1.82,0.22-2.53c3.25-3.33,6.52-6.64,9.85-9.89
		c0.9-0.88,2.08-0.84,3.04,0c1.07,0.93,1.27,2.28,0.35,3.25c-3.2,3.38-6.53,6.63-9.85,9.89
		C-296.93-274.11-297.48-273.99-297.8-273.84z"/>
	<path class="st0" d="M-289.86-236.48c-0.02,0.69-0.36,1.4-0.95,2c-1.43,1.43-2.85,2.88-4.3,4.29c-1.16,1.13-2.48,1.52-3.72,0.2
		c-1.07-1.15-0.88-2.44,0.16-3.52c1.54-1.61,3.13-3.17,4.73-4.71c0.81-0.77,1.8-0.89,2.81-0.38
		C-290.32-238.21-289.98-237.49-289.86-236.48z"/>
	<path class="st0" d="M-276.72-295.39c-0.07,1.77-4.15,5.85-5.63,5.71c-1.91-0.19-2.91-1.52-2.13-3.17c0.95-2,2.61-3.76,4.68-4.6
		C-278.09-298.15-276.93-297.03-276.72-295.39z"/>
	<path class="st0" d="M-223.28-166.23c-5.91,0-11.82,0-17.72,0c-0.61,0-1.22,0.01-1.83-0.01c-1.75-0.04-3.11-0.77-3.03-2.65
		c0.07-1.74,1.41-2.26,3.05-2.24c4.18,0.04,8.35,0.01,12.53,0.01c8.76,0,17.52,0.02,26.28-0.01c1.78-0.01,3.5,0.25,3.49,2.41
		c-0.02,2.1-1.73,2.49-3.5,2.49C-210.44-166.24-216.86-166.23-223.28-166.23z"/>
	<path class="st0" d="M-185.73-171.08c1.52,0,3.05-0.05,4.57,0.02c1.29,0.06,2.08,0.84,2.22,2.1c0.16,1.45-0.71,2.5-2.03,2.57
		c-3.23,0.16-6.49,0.15-9.72-0.01c-1.2-0.06-1.98-1.12-1.92-2.38c0.07-1.38,0.85-2.26,2.33-2.3c1.52-0.03,3.05-0.01,4.57-0.01
		C-185.73-171.09-185.73-171.09-185.73-171.08z"/>
	<path class="st0" d="M-349.59-295.18c0-2.95,0-5.9,0-8.85c0-1.64,0.58-2.85,2.41-2.83c1.82,0.02,2.44,1.29,2.45,2.87
		c0.03,5.9,0.03,11.8-0.01,17.7c-0.01,1.58-0.64,2.84-2.48,2.83c-1.85-0.01-2.38-1.25-2.38-2.87
		C-349.59-289.28-349.6-292.23-349.59-295.18z"/>
</g>
<rect x="35.73" y="-370.21" class="st3" width="214.38" height="136.42"/>
<g>
	<g>
		<path class="st0" d="M513.52-366.58c1.06,0.48,2.22,0.74,3.35,0.99c3.88,0.83,7.86,1.2,11.81,1.43
			c14.65,0.89,29.54,0.23,43.84-3.25c3.2-0.78,6.44-1.64,9.52-2.84c1.33-0.52,0.75-2.7-0.6-2.17c-2.35,0.92-4.81,1.61-7.24,2.26
			c-6.31,1.68-12.77,2.82-19.27,3.44c-7.8,0.74-15.71,0.78-23.53,0.45c-4.3-0.18-8.63-0.48-12.87-1.28
			c-1.06-0.2-2.11-0.43-3.15-0.74c-0.25-0.08-0.49-0.17-0.74-0.25c-0.31-0.1-0.09-0.03,0.01,0.01
			C513.35-369.12,512.2-367.19,513.52-366.58L513.52-366.58z"/>
	</g>
</g>
</svg>
