<?xml version="1.0" encoding="utf-8"?>
<!-- Generator: Adobe Illustrator 26.0.1, SVG Export Plug-In . SVG Version: 6.00 Build 0)  -->
<svg version="1.1" xmlns="http://www.w3.org/2000/svg" xmlns:xlink="http://www.w3.org/1999/xlink" x="0px" y="0px"
	 viewBox="0 0 283.46 283.46" style="enable-background:new 0 0 283.46 283.46;" xml:space="preserve">
<style type="text/css">
	.st0{display:none;}
	.st1{display:inline;}
	.st2{fill:#172B4D;}
</style>
<g id="Layer_1" class="st0">
	<g class="st1">
		<path class="st2" d="M104.99,95.75c23.47-23.85,51.24-33.99,83.82-28.5c25.3,4.26,45.4,17.48,59.84,38.74
			c30.6,45.03,15.4,107.35-34.46,133.04c1.09,0.71,2.19,0.41,3.18,0.42c16.61,0.02,33.21,0.01,49.82,0.02c4.2,0,4.77,0.61,4.61,4.78
			c-0.57,14.47-11.27,25.59-25.65,26.59c-2.54,0.18-5.09,0.17-7.64,0.17c-49.82,0.01-99.64,0.01-149.46,0.01
			c-20.98,0-41.96,0-62.93,0c-4.45,0-4.83-0.39-4.83-4.92c0-27.92,0.02-55.83-0.03-83.75c-0.01-2.99,0.25-5.41,4.13-5.09
			c1.41,0.12,1.33-0.88,1.33-1.82c0-3.36,0.05-6.73-0.02-10.09c-0.05-2.37,0.81-3.56,3.36-3.61c2.28-0.05,5.32,1.16,6.65-0.62
			c1.09-1.46,0.35-4.31,0.35-6.55c0.01-25.47-0.03-50.94,0.07-76.41c0.01-2.45-0.46-3.57-3.12-3.23c-1.8,0.23-3.72-0.08-3.7-2.49
			c0.03-2.5,2.06-2.58,3.79-2.31c3.31,0.52,2.84-1.6,3.03-3.66c0.23-2.54-0.8-3.18-3.11-2.99c-2.02,0.17-4.07,0.03-6.11,0.03
			c-1.6,0-2.94-0.5-2.99-2.31c-0.06-1.98,1.35-2.56,3.07-2.57c2.34-0.02,4.69-0.13,7.03,0.02c2.61,0.17,2.11-1.62,2.03-3.04
			c-0.08-1.39,0.95-3.52-1.98-3.39c-2.34,0.11-4.69,0.05-7.03,0c-1.67-0.04-3.16-0.55-3.11-2.55c0.05-2.04,1.58-2.34,3.25-2.32
			c1.94,0.02,3.9-0.23,5.8,0.05c3.13,0.45,3.1-1.29,3.17-3.57c0.07-2.34-0.5-3.35-3.01-3.06c-1.91,0.22-3.87,0.02-5.8,0.05
			c-1.8,0.03-3.45-0.33-3.39-2.52c0.06-2.19,1.77-2.41,3.53-2.39c2.24,0.03,4.49-0.11,6.72,0.03c2.15,0.13,2.11-1.27,1.83-2.55
			c-0.29-1.39,1.41-3.82-1.71-3.93c-2.44-0.09-4.89,0-7.33-0.04c-1.68-0.03-3.14-0.51-3.06-2.55c0.07-1.84,1.45-2.29,3.01-2.31
			c2.44-0.03,4.89,0.02,7.34-0.04c3.13-0.08,1.48-2.5,1.76-3.89c0.26-1.3,0.27-2.8-1.85-2.51c-0.1,0.01-0.2,0-0.31,0
			c-1.97-0.09-4.59,0.47-4.52-2.6c0.06-2.91,2.63-2.35,4.44-2.24c2.02,0.12,2.48-0.75,2.31-2.51C37,9.63,37.06,8.5,37.11,7.38
			c0.07-1.45,0.91-2.27,2.32-2.32c1.43-0.05,2.24,0.84,2.49,2.2c0.09,0.49,0.1,1.02,0.04,1.52c-0.34,3,0.02,5.24,4,4.46
			c1.47-0.29,2.65,0.55,2.76,2.15c0.13,1.78-1.03,2.52-2.66,2.67c-0.3,0.03-0.62-0.03-0.91,0.03c-1.03,0.21-2.66-0.66-3,0.63
			c-0.42,1.62-0.23,3.45-0.02,5.15c0.1,0.83,1.17,0.61,1.85,0.62c2.34,0.03,4.69,0.02,7.03,0.03c1.59,0.01,2.97,0.54,3.05,2.29
			c0.09,1.96-1.34,2.55-3.06,2.57c-2.04,0.02-4.08-0.06-6.11,0.05c-0.99,0.06-2.57-0.68-2.81,0.92c-0.25,1.67-0.12,3.45,0.17,5.12
			c0.12,0.68,1.26,0.39,1.94,0.39c2.34,0.03,4.69,0.02,7.03,0.02c1.67,0,2.87,0.76,2.85,2.47c-0.02,1.71-1.24,2.43-2.9,2.42
			c-2.34-0.01-4.69,0.06-7.03-0.02c-1.45-0.05-2.17,0.22-2.22,1.96c-0.14,4.61-0.23,4.61,4.49,4.61c1.63,0,3.26,0.03,4.89,0.01
			c1.54-0.01,2.68,0.67,2.77,2.22c0.11,1.75-1.13,2.56-2.74,2.62c-2.44,0.09-4.9,0.17-7.33,0.02c-2.64-0.16-2.09,1.65-2,3.04
			c0.1,1.35-1.02,3.53,1.94,3.39c2.34-0.11,4.69-0.02,7.03-0.01c1.75,0,3.14,0.68,3.09,2.58c-0.05,1.72-1.37,2.33-3,2.31
			c-2.34-0.03-4.69,0.08-7.03-0.01c-3.16-0.13-1.88,2.22-2.03,3.64c-0.15,1.42-0.55,3.3,2.05,2.95c0.5-0.07,1.02,0.01,1.53-0.01
			c1.73-0.05,3.16,0.42,3.13,2.44c-0.03,1.99-1.54,2.63-3.19,2.41c-3.02-0.42-3.64,0.76-3.63,3.66c0.12,26.69,0.11,53.39,0.01,80.08
			c-0.01,2.54,0.67,3.26,3.21,3.19c7.29-0.19,7.29-0.83,7.19,7.33c-0.01,1.22,0.02,2.45-0.01,3.67c-0.06,2.4-0.57,4.92,3.36,4.67
			c1.52-0.1,1.95,1.55,1.95,2.98c0.01,2.95,0.17,5.92-0.04,8.86c-0.17,2.5,0.79,3.11,3.14,3.03c2.11-0.07,3.37-0.18,3.25-2.9
			c-0.23-5.08-0.02-10.19-0.07-15.28c-0.04-3.34,0.93-6.26,3.5-8.44c1.09-0.93,1.26-1.98,1.25-3.24c-0.03-2.95-0.06-5.91,0.01-8.86
			c0.05-2.24-0.69-4.75,2.22-6.09c0.84-0.38,0.37-1.69,0.38-2.57c0.03-10.09,0.1-20.17-0.02-30.26c-0.04-3.73,1.19-6.66,3.83-9.25
			c6.83-6.71,13.58-13.51,20.33-20.3c1.8-1.81,3.66-3.37,6.43-2.27c2.88,1.15,3.29,3.58,3.2,6.29
			C104.93,91.21,104.99,93.21,104.99,95.75z M112.32,181.15c0.01,0,0.01,0,0.02,0c0,2.34,0.09,4.69-0.03,7.03
			c-0.1,1.82,0.36,3.37,1.33,4.88c13.71,21.45,33.33,32.98,58.72,33.34c42.86,0.61,75.67-37.84,68.85-80.19
			c-5.23-32.44-32.45-56.62-65.98-58.21c-30.71-1.46-60.53,20.02-68.92,50.38c-0.68,2.44-1.47,4.89-1.29,7.49
			c0.05,0.66-0.32,1.56,0.52,1.91c2.23,0.93,1.96,2.82,1.96,4.66c-0.01,3.16,0.07,6.32-0.03,9.48c-0.06,1.73,0.29,3.03,1.7,4.24
			c2.19,1.87,3.11,4.48,3.16,7.36C112.35,176.06,112.32,178.61,112.32,181.15z M112.33,200.25c0,5.75,0.15,10.71-0.06,15.66
			c-0.1,2.4,0.77,3.96,2.49,5.47c6.77,5.97,14.2,10.87,22.38,14.7c5.06,2.37,10.19,3.58,15.87,3.47
			c14.77-0.27,29.54-0.11,44.32-0.07c1.87,0,3.6-0.33,5.35-0.96c39.69-14.21,63.59-55.63,55.09-97.67
			c-7.1-35.1-28.74-58.33-63.35-67.22c-34.62-8.89-64.26,1.54-88.04,28.3c-1.01,1.13-1.43,2.32-1.41,3.85
			c0.08,6.21,0.02,12.43,0.06,18.64c0,0.57-0.46,1.39,0.47,1.78c15.17-31.98,48.75-47.94,80.99-41.75
			c33.04,6.34,56.54,32.3,60.23,65.98c3.4,31.01-14.92,61.99-44.28,74.79C171.95,238.52,134.67,230.18,112.33,200.25z M190,244.35
			c-24.85,0-49.7,0.04-74.55-0.06c-2.53-0.01-3.23,0.61-3.2,3.17c0.07,5.18,0.87,10.48-0.41,15.51c-0.8,3.13,0.04,3.19,2.58,3.19
			c42.37-0.06,84.73-0.04,127.1-0.05c1.83,0,3.67-0.07,5.49-0.24c9.75-0.94,17.74-8.58,19.56-18.25c0.55-2.93-0.28-3.33-2.94-3.32
			C239.08,244.39,214.54,244.35,190,244.35z M43.85,239.62c2.96-2.11,5.68-4.05,8.4-6c1.44-1.03,3.03-2.28,4.49-0.33
			c1.61,2.15-0.25,3.3-1.74,4.38c-3.22,2.33-6.43,4.66-9.71,6.9c-1.31,0.9-1.87,1.94-1.84,3.55c0.08,5.19,0.1,10.39,0,15.58
			c-0.04,1.89,0.64,2.44,2.48,2.43c11.31-0.06,22.61-0.07,33.92,0c1.93,0.01,2.46-0.73,2.39-2.52c-0.11-2.85-0.03-5.7-0.03-8.55
			c0-16.81,0.01-33.61,0-50.42c0-5.71-1.75-7.43-7.51-7.43c-8.25-0.01-16.5-0.03-24.75,0.01c-4.37,0.02-6.37,1.94-6.42,6.33
			c-0.08,7.13-0.03,14.26-0.01,21.39c0,0.48,0.12,0.95,0.24,1.9c3.18-2.26,6.06-4.28,8.91-6.34c1.47-1.06,2.97-1.71,4.22,0.1
			c1.15,1.67,0.07,2.85-1.27,3.81c-2.73,1.96-5.3,4.21-8.23,5.79C43.52,232.28,42.82,235.26,43.85,239.62z M107.44,217.31
			c0-14.25,0.02-28.5-0.01-42.75c-0.01-4.52-2.03-6.57-6.5-6.59c-8.55-0.03-17.1-0.03-25.65,0c-4.49,0.02-6.44,2-6.47,6.58
			c-0.04,4.68,0.21,9.38-0.09,14.04c-0.2,3.17,0.83,4.04,3.88,3.8c3-0.23,6.1-0.44,8.94,1.17c4.21,2.4,5.56,6.19,5.56,10.78
			c-0.02,19.54,0.04,39.09-0.06,58.63c-0.01,2.58,0.75,3.36,3.26,3.2c3.14-0.21,6.31-0.04,9.46-0.05c5.99-0.02,7.67-1.68,7.68-7.58
			C107.44,244.79,107.44,231.05,107.44,217.31z M26.2,224.02c0,13.03,0.07,26.06-0.06,39.1c-0.02,2.47,0.73,3.25,3.09,3.03
			c1.82-0.17,3.68-0.22,5.49,0c3.01,0.36,3.97-0.57,3.95-3.78c-0.17-19.03-0.09-38.06-0.06-57.09c0-1.62,0.05-3.27,0.35-4.86
			c0.79-4.15,4.41-7.44,8.59-8c5.18-0.69,5.18-0.69,5.18-6.11c0-0.51-0.05-1.02,0.01-1.53c0.22-1.92-0.45-2.7-2.53-2.66
			c-7.13,0.11-14.25,0.13-21.38,0c-2.22-0.04-2.69,0.77-2.68,2.82C26.23,197.96,26.19,210.99,26.2,224.02z M99.96,87.53
			c-7.77,7.79-15.03,15.08-22.31,22.35c-1.27,1.26-1.5,2.79-1.49,4.48c0.02,10.29,0.05,20.58-0.03,30.87
			c-0.02,1.92,0.42,2.66,2.51,2.62c6.31-0.13,12.64-0.12,18.95,0c1.98,0.04,2.57-0.52,2.57-2.54c-0.08-18.55-0.04-37.09-0.05-55.64
			C100.1,89.2,100.04,88.72,99.96,87.53z M87.87,163.07c2.34,0,4.68,0,7.02,0c7.94,0,7.88,0,7.75-8c-0.03-1.86-0.52-2.44-2.41-2.41
			c-6.31,0.11-12.62,0.04-18.92,0.04c-8.32,0-8.27,0-7.81,8.35c0.09,1.61,0.62,2.08,2.17,2.05
			C79.73,163.01,83.8,163.07,87.87,163.07z M39.26,166.67c-2.13,0.27-5.52-1.15-7.14,0.53c-1.6,1.66-0.25,5.03-0.53,7.63
			c-0.23,2.14,0.75,2.53,2.62,2.47c3.45-0.12,6.91-0.17,10.36,0.01c2.3,0.12,2.92-0.62,2.91-2.9
			C47.42,166.67,47.51,166.67,39.26,166.67z M112.34,225.76c0,4.49,0.02,8.23-0.01,11.97c-0.01,1.05,0.15,1.74,1.47,1.73
			c5.94-0.04,11.89-0.02,17.83-0.02C124.97,235.44,118.68,231.2,112.34,225.76z"/>
		<path class="st2" d="M197.93,127.31c-0.02,1.02-0.68,1.67-1.33,2.32c-15.48,15.48-30.97,30.96-46.46,46.44
			c-1.28,1.28-2.7,2.12-4.19,0.52c-1.36-1.46-0.5-2.79,0.69-3.97c15.49-15.48,30.98-30.96,46.46-46.44c0.98-0.98,2.01-1.78,3.5-1.08
			C197.51,125.54,197.93,126.3,197.93,127.31z"/>
		<path class="st2" d="M214.88,131.15c-0.15,1.29-0.85,2.01-1.57,2.74c-3.31,3.29-6.61,6.58-9.91,9.88
			c-1.23,1.23-2.58,2.3-4.16,0.72c-1.55-1.56-0.57-2.92,0.68-4.16c3.46-3.43,6.89-6.88,10.34-10.31c0.9-0.9,1.89-1.57,3.24-0.88
			C214.41,129.6,214.71,130.42,214.88,131.15z"/>
		<path class="st2" d="M132.21,147.66c-1.15-0.03-1.91-0.46-2.4-1.32c-0.51-0.89-0.47-1.82,0.22-2.53c3.25-3.33,6.52-6.64,9.85-9.89
			c0.9-0.88,2.08-0.84,3.04,0c1.07,0.93,1.27,2.28,0.35,3.25c-3.2,3.38-6.53,6.63-9.85,9.89
			C133.09,147.39,132.54,147.5,132.21,147.66z"/>
		<path class="st2" d="M140.16,185.01c-0.02,0.69-0.36,1.4-0.95,2c-1.43,1.43-2.85,2.88-4.3,4.29c-1.16,1.13-2.48,1.52-3.72,0.2
			c-1.07-1.15-0.88-2.44,0.16-3.52c1.54-1.61,3.13-3.17,4.73-4.71c0.81-0.77,1.8-0.89,2.81-0.38
			C139.69,183.28,140.03,184,140.16,185.01z"/>
		<path class="st2" d="M153.29,126.11c-0.07,1.77-4.15,5.85-5.63,5.71c-1.91-0.19-2.91-1.52-2.13-3.17c0.95-2,2.61-3.76,4.68-4.6
			C151.93,123.34,153.08,124.47,153.29,126.11z"/>
		<path class="st2" d="M206.74,255.26c-5.91,0-11.82,0-17.72,0c-0.61,0-1.22,0.01-1.83-0.01c-1.75-0.04-3.11-0.77-3.03-2.65
			c0.07-1.74,1.41-2.26,3.05-2.24c4.18,0.04,8.35,0.01,12.53,0.01c8.76,0,17.52,0.02,26.28-0.01c1.78-0.01,3.5,0.25,3.49,2.41
			c-0.02,2.1-1.73,2.49-3.5,2.49C219.57,255.26,213.15,255.26,206.74,255.26z"/>
		<path class="st2" d="M244.29,250.41c1.52,0,3.05-0.05,4.57,0.02c1.29,0.06,2.08,0.84,2.22,2.1c0.16,1.45-0.71,2.5-2.03,2.57
			c-3.23,0.16-6.49,0.15-9.72-0.01c-1.2-0.06-1.98-1.12-1.92-2.38c0.07-1.38,0.85-2.26,2.33-2.3c1.52-0.03,3.05-0.01,4.57-0.01
			C244.29,250.41,244.29,250.41,244.29,250.41z"/>
		<path class="st2" d="M80.42,126.32c0-2.95,0-5.9,0-8.85c0-1.64,0.58-2.85,2.41-2.83c1.82,0.02,2.44,1.29,2.45,2.87
			c0.03,5.9,0.03,11.8-0.01,17.7c-0.01,1.58-0.64,2.84-2.48,2.83c-1.85-0.01-2.38-1.25-2.38-2.87
			C80.42,132.22,80.42,129.27,80.42,126.32z"/>
	</g>
</g>
<g id="Layer_2" class="st0">
	<g class="st1">
		<g>
			<path class="st2" d="M281.62,219.41c-0.53,1.86-1.09,3.71-1.76,5.52c-0.47,1.28-1.01,2.54-1.72,3.71
				c-1.7,2.77-3.66,5.35-6.13,7.46c-6.08,5.23-13.13,7.96-21.2,7.96c-72.37-0.01-144.74-0.01-217.11,0.01
				c-4.77,0-9.37-0.74-13.73-2.72c-2.53-1.15-4.92-2.54-7.08-4.32c-2.42-2-4.49-4.27-6.25-6.88c-1.38-2.04-2.29-4.26-3.2-6.52
				c-1.2-2.98-1.52-6.07-1.57-9.22c-0.03-1.71,0.01-3.42-0.02-5.13c-0.01-0.55,0.12-0.84,0.72-0.75c0.12,0.02,0.24,0,0.37,0
				c35.56,0,71.13,0,106.69,0c1.25,0,1.1-0.13,1.1,1.08c0.01,4.32,0.01,8.64-0.01,12.96c0,0.59,0.13,0.8,0.76,0.79
				c20.28-0.02,40.57-0.02,60.85,0c0.59,0,0.74-0.18,0.74-0.75c-0.02-4.42,0-8.84-0.03-13.26c0-0.67,0.19-0.85,0.86-0.85
				c35.68,0.02,71.37,0.01,107.05,0.02c0.22,0,0.44,0.02,0.66,0.04C281.62,212.18,281.62,215.79,281.62,219.41z"/>
			<path class="st2" d="M141.9,193.63c-39.08,0-78.15,0-117.23,0c-1.18,0-1.05,0.16-1.05-1.06c0-50.7,0-101.4,0-152.1
				c0-1.24-0.13-1.05,1.04-1.05c78.15,0,156.3,0,234.46,0c1.05,0,1.05,0,1.05,1.05c0,50.7,0,101.4,0,152.1
				c0,1.23,0.12,1.06-1.04,1.06C220.05,193.63,180.98,193.63,141.9,193.63z M141.79,47.35c-35.28,0-106.99-0.17-106.99,1.36
				c0,43.39,0,86.78,0,130.16c0,1.47,213.98,1.47,213.98,0.01c0-43.36,0-86.71,0-130.07C248.78,47.15,177.04,47.35,141.79,47.35z"/>
		</g>
	</g>
</g>
<g id="Layer_3">
	<g>
		<path class="st2" d="M208.44,252.83c0.14,3.91,0.12,4.13-2.48,3.83c-5.19-0.61-10.41-0.92-15.58-1.92
			c-4.47-0.86-8.83-2.05-13.15-3.39c-4.84-1.49-9.46-3.58-14.06-5.72c-6.22-2.89-12.02-6.57-17.51-10.67
			c-7.55-5.65-14.84-11.65-20.81-19.17c-3.95-4.97-7.32-10.3-10.17-15.99c-3.12-6.22-5.75-12.66-8.29-19.15
			c-1.95-4.98-3.81-9.99-5.81-14.95c-1.83-4.57-3.58-9.18-5.68-13.63c-4.22-8.97-8.59-17.88-15.43-25.14
			c-5.19-5.51-11.04-10.28-16.63-15.34c-6.36-5.75-12.62-11.62-17.46-18.83c-3.64-5.43-5.67-11.36-4.35-18.1
			c0.49-2.5,1.76-4.62,3.1-6.65c5.08-7.69,10.27-15.3,14.73-23.4c0.17-0.32,0.34-0.64,0.48-0.97c0.32-0.78,0.63-1.88,1.46-1.79
			c0.76,0.08,0.98,1.22,1.29,2.01c2.56,6.57,6.96,11.13,13.55,13.51c2.96,1.07,5.94,1.44,9.02,1.43c5.72-0.02,11.43,0.02,17.15-0.31
			c4.39-0.25,8.79-0.38,13.1,1.2c3.98,1.46,6.92,3.96,8.99,7.68c2.01,3.61,2.75,7.67,3.9,11.58c1.3,4.44,2.44,8.94,3.63,13.42
			c0.56,2.1,0.92,4.24,1.46,6.35c1.15,4.49,2,9.05,2.99,13.58c1.15,5.22,2.39,10.43,3.45,15.67c0.5,2.48,0.95,4.96,1.56,7.42
			c1.95,7.94,3.88,15.85,7.64,23.21c2.68,5.25,6.07,9.88,11.34,12.13c3.77,1.61,3.47,4.93,4.63,7.63c1.79,4.18,3.44,8.41,5.75,12.33
			c3.43,5.84,7.29,11.38,11.47,16.68c3.62,4.6,7.33,9.12,10.92,13.75c4.94,6.37,9.71,12.84,12.94,20.39
			C207.29,245.52,208.3,249.66,208.44,252.83z M85.56,91.05c-0.46,0.11-0.8,0.35-0.83,0.71c-0.11,1.36-1.17,2.16-1.75,3.23
			c-0.94,1.72-1.55,3.88-2.67,5.15c-1.4,1.6-2.03,3.58-3.39,5.11c-0.59,0.66-0.4,1.34,0.44,1.94c4.04,2.91,7.78,6.2,11.07,9.97
			c5.97,6.83,10.44,14.68,14.31,22.89c3.91,8.3,7.17,16.9,10.57,25.44c3.19,8.03,6.55,15.98,10.65,23.58c1,1.85,1.09,1.89,2.34,0.31
			c2.69-3.42,5.28-6.94,8.07-10.27c1.35-1.61,1.53-2.95,0.23-4.6c-0.51-0.65-0.78-1.48-1.19-2.21c-2.09-3.7-3.8-7.61-5.58-11.47
			c-1.28-2.77-2.29-5.68-3.45-8.5c-2.33-5.66-4.72-11.28-7.01-16.96c-1.89-4.68-3.89-9.31-6.22-13.77
			c-3.02-5.79-6.4-11.33-10.49-16.46c-4.1-5.13-8.8-9.47-13.92-13.41C86.36,91.45,85.92,91.26,85.56,91.05z"/>
		<path class="st2" d="M10.28,177.82c29.92,16.98,60.2,33.24,91.48,48.01c-0.25-1.81-0.97-3.11-2.22-4.01
			c-4.71-3.42-9.96-5.9-14.89-8.94c-5.03-3.1-10.13-6.07-15.15-9.18c-8.8-5.45-17.56-10.97-26.34-16.45
			c-1.56-0.98-3.31-1.68-4.52-3.21c1.65,0.04,3.04,0.91,4.38,1.58c8.72,4.33,17.61,8.27,26.45,12.33c4.32,1.99,8.66,3.96,13,5.9
			c3.64,1.62,7.34,3.1,11.01,4.63c0.46,0.19,0.9,0.8,1.42,0.26c0.43-0.44,0.19-1.04,0.05-1.55c-1-3.47-1.99-6.94-3.04-10.39
			c-1.1-3.62-2.29-7.22-3.4-10.84c-1.68-5.53-3.66-10.9-6.27-16.07c-3.1-6.16-7.1-11.49-12.25-15.91
			c-3.43-2.94-7.22-5.38-10.93-7.94c-6.67-4.6-13.31-9.27-19.19-14.95c-4.83-4.67-9.08-9.84-11.52-16.23
			c-2.72-7.12-2.82-14.44-0.06-21.58c0.89-2.29,2.53-4.3,3.95-6.34c0.55-0.8,1.03-0.25,1.11,0.51c0.15,1.45,0.69,2.82,0.93,4.22
			c1.02,6.01,4.03,11,7.5,15.73c4.8,6.54,10.83,11.84,16.85,17.14c4.29,3.77,8.51,7.65,12.21,12c4.75,5.57,8.84,11.68,12.42,18.13
			c4.11,7.4,7.46,15.16,10.79,22.94c1.96,4.58,4.18,9.04,6,13.67c2.08,5.26,4.45,10.38,6.99,15.4c4.46,8.82,9.76,17.04,16.89,23.92
			c5.93,5.72,12.31,10.79,19.06,15.44c5.63,3.87,11.54,7.18,17.62,10.17c3.86,1.9,7.88,3.42,11.95,4.84
			c4.24,1.49,8.51,2.74,12.87,3.72c13.16,2.97,26.52,3.18,39.88,2.65c5.88-0.24,11.58-1.79,17.18-3.74
			c3.98-1.38,7.73-3.18,11.34-5.35c1.19-0.72,1.68-0.37,1.68,1.13c0,4.01-1.91,6.99-4.85,9.4c-3.17,2.59-6.86,4.19-10.69,5.39
			c-4.89,1.53-9.88,2.59-14.97,3.32c-11.38,1.64-22.75,1.67-34.17,0.79c-7.72-0.6-15.24-2.33-22.67-4.33
			c-5.48-1.48-10.82-3.57-16.09-5.81c-3.52-1.5-6.97-3.17-10.42-4.8c-5.37-2.55-10.54-5.54-15.75-8.43
			c-6.25-3.46-12.5-6.91-18.66-10.54c-6.06-3.58-11.98-7.41-18.01-11.05c-7.55-4.56-14.86-9.48-22.19-14.39
			c-6.7-4.48-13.3-9.12-19.89-13.76c-7.5-5.28-14.95-10.63-22.4-15.99c-4.52-3.25-9-6.54-13.49-9.83c-0.46-0.34-0.85-0.79-1.27-1.18
			C10.08,178.11,10.18,177.96,10.28,177.82z"/>
		<path class="st2" d="M190.68,167.25c4.97-0.17,9.72,0.76,14.28,2.79c0.79,0.35,1.4,0.75,1.67,1.69c1.56,5.32,4.26,10.04,7.5,14.43
			c5.47,7.41,12.26,13.46,19.2,19.36c5.7,4.84,11.34,9.77,16.07,15.69c6.2,7.76,8.32,16.56,6.8,26.39c-0.13,0.84-0.57,1.25-1.3,1.52
			c-4.09,1.55-8.36,2.43-12.52,3.71c-3.45,1.06-7.01,1.52-10.52,2.22c-3.92,0.78-7.95,0.94-11.93,1.35
			c-1.4,0.14-2.82,0.23-4.23,0.31c-1.08,0.06-1.7-0.43-1.63-1.6c0.2-3.36-0.58-6.6-1.12-9.87c-0.74-4.56-2.42-8.81-4.5-12.87
			c-3.88-7.57-9.08-14.14-14.63-20.48c-3.68-4.2-7.4-8.41-10.75-12.88c-4.57-6.1-8.9-12.46-11.65-19.71
			c-0.7-1.84-1.58-3.64-1.88-5.64c-0.12-0.83,0.02-1.38,0.85-1.71c2.79-1.1,5.58-2.18,8.44-3.11
			C182.73,167.56,186.69,167.43,190.68,167.25z"/>
		<path class="st2" d="M64.59,34.59c0-5.64,1.63-10.32,3.55-14.96c1.7-4.1,3.86-7.85,6.93-11.01C80.07,3.49,86.16,1.7,92.9,3.4
			c4.73,1.19,8.38,4.46,11.43,8.38c3.25,4.2,5.01,9.24,7.51,13.86c1.91,3.54,3.94,6.98,6.28,10.23c1.34,1.87,1.37,2.22-0.64,3.25
			c-2.69,1.39-5.56,2.26-8.56,2.68c-1.23,0.17-1.54-0.7-1.88-1.51c-1.58-3.77-3.29-7.48-5.44-10.93c-1.59-2.56-3.12-5.19-5.55-7.16
			c-3.87-3.13-7.04-2.12-9.7,1.04c-3.37,4.02-5.92,8.6-6.26,14.08c-0.18,2.99,0.96,5.48,3.53,7.02c1.72,1.03,3.54,1.79,5.59,2.08
			c5.65,0.81,11.3,0.66,16.89-0.19c6.4-0.97,12.75-2.42,18.15-6.46c4.1-3.07,7.17-7.09,9.78-11.5c1.84-3.11,3.68-6.2,6.9-8.05
			c1.43-0.82,2.84-1.64,4.46-2.04c4.74-1.19,9.53-1.1,14.15,0.28c4.92,1.47,8.72,4.45,10.5,9.79c1.66,4.97,2.12,10.1,2.8,15.24
			c0.82,6.21,1.96,12.37,3.51,18.44c0.43,1.68,0.13,1.79-1.46,1.22c-3.15-1.14-6.38-2.01-9.82-1.88c-4.53,0.17-9.09-0.27-13.59,0.51
			c-7.07,1.23-14.06,2.84-20.72,5.65c-0.97,0.41-1.29,0.08-1.57-0.71c-1.76-4.82-4.49-8.8-9.06-11.26
			c-3.15-1.69-6.5-2.38-10.02-2.47c-8.14-0.2-16.25,0.69-24.39,0.46c-4.34-0.12-8.42-1.22-12.14-3.35
			C67.54,46.66,64.39,41.32,64.59,34.59z"/>
		<path class="st2" d="M180.9,127.34c3,0,5.01-0.13,7,0.03c4.18,0.32,7.8,1.88,10.06,5.73c1.64,2.8,1.51,5.89,0.86,8.97
			c-0.17,0.83-0.74,0.75-1.38,0.49c-5-2.07-10.24-2.67-15.56-2.37c-6.39,0.36-12.68,1.38-18.91,3.02c-4.23,1.12-8.28,2.65-12.3,4.31
			c-1.12,0.46-1.84,0.4-2.2-1.05c-0.75-3.03-1.63-6.03-2.47-9.04c-0.31-1.11,0.07-1.65,1.15-2.19c7.9-3.93,16.25-6.09,24.93-7.26
			C175.36,127.54,178.62,127.46,180.9,127.34z"/>
		<path class="st2" d="M193.57,119.06c0,0.42,0.02,0.85,0,1.27c-0.18,3.2-0.3,3.21-3.18,2.06c-3.04-1.22-6.26-1.6-9.5-1.75
			c-6.21-0.29-12.38,0.31-18.41,1.65c-4.85,1.08-9.7,2.36-14.36,4.21c-0.97,0.39-1.9,0.9-2.87,1.3c-1.22,0.52-1.5,0.19-1.72-0.99
			c-0.64-3.37-1.35-6.72-2.1-10.06c-0.17-0.75,0.01-1.17,0.65-1.43c3.83-1.51,7.54-3.28,11.55-4.35c8.93-2.38,17.98-3.85,27.18-3.44
			c4.76,0.21,9.38,1.6,11.89,6.6C193.5,115.73,193.55,117.37,193.57,119.06z"/>
		<path class="st2" d="M172.17,88.15c3.96-0.09,7.86-0.01,11.43,2.21c3.53,2.2,5.13,5.37,4.86,9.52c-0.27,4.16-0.24,3.83-4.07,2.76
			c-5.05-1.41-10.28-1.98-15.55-1.26c-1.98,0.27-3.99,0.36-5.97,0.6c-6.73,0.82-13.18,2.77-19.57,5.04c-3.89,1.38-3.17,2-4.19-2.24
			c-0.61-2.52-0.87-5.11-1.6-7.59c-0.33-1.11,0.13-1.63,0.93-1.98c2.04-0.9,4.06-1.91,6.18-2.57c4.78-1.48,9.65-2.58,14.58-3.43
			C163.5,88.45,167.82,88.23,172.17,88.15z"/>
		<path class="st2" d="M182.94,79.48c-0.01,0.2,0.01,0.88-0.11,1.52c-0.41,2.12-0.92,2.12-2.91,1.39c-3.26-1.19-6.69-1.8-10.16-2.06
			c-5.87-0.45-11.63,0.67-17.33,1.68c-5.35,0.95-10.7,2.23-15.66,4.7c-1.14,0.57-1.95,0.36-2.2-1.01c-0.6-3.27-1.37-6.48-2.51-9.59
			c-0.27-0.74,0.06-1.21,0.76-1.57c3.43-1.76,7.12-2.74,10.74-3.95c3.44-1.15,6.98-1.76,10.5-2.27c4.94-0.73,9.96-0.91,14.98-0.83
			c1.84,0.03,3.66,0.14,5.43,0.63c1.92,0.53,3.76,1.27,5.22,2.79C181.78,73.06,182.96,75.85,182.94,79.48z"/>
		<path class="st2" d="M189.23,147.63c1.71,0,3.42-0.02,5.13,0c8.15,0.09,12.76,6.2,12.06,14.17c-0.11,1.29-0.83,1.3-1.72,0.96
			c-1.87-0.7-3.72-1.42-5.6-2.08c-3.64-1.28-7.33-0.85-11-1.04c-4.15-0.22-8.2,0.65-12.19,1.71c-3.64,0.97-7.28,2.17-10.46,4.2
			c-2.56,1.64-4.46,0.47-6.3-0.79c-2.35-1.61-4.18-3.84-5.75-6.29c-0.82-1.27-0.53-1.98,0.61-2.59c3.34-1.78,6.88-3.07,10.43-4.32
			c5.59-1.98,11.42-2.77,17.21-3.65c2.48-0.38,5.05-0.06,7.58-0.06C189.23,147.76,189.23,147.69,189.23,147.63z"/>
	</g>
</g>
</svg>
